<svg xmlns="http://www.w3.org/2000/svg" width="480" height="152" viewBox="0 0 480 152" role="img"><rect x="0.5" y="0.5" width="479" height="151" rx="16" fill="#fdfcf6" stroke="#d6d9ce"/><rect x="16" y="16" width="22" height="22" rx="8" fill="#d6d9ce"/><path d="M27 26.92 L32.04 26.92 M27 26.92 L30.56 30.48 M27 26.92 L27 31.96 M27 26.92 L23.44 30.48 M27 26.92 L21.96 26.92 M27 26.92 L23.44 23.36 M27 26.92 L27 21.88 M27 26.92 L30.56 23.36" fill="none" stroke="#42774e" stroke-width="0.96" stroke-linecap="round"/><path d="M51.52 22.85L54.37 30.95L55.20 31.19L55.20 32L51.59 32L51.59 31.19L52.59 30.93L52.12 29.50L48.85 29.50L48.34 30.95L49.37 31.19L49.37 32L46.04 32L46.04 31.19L46.88 30.95L49.90 22.90L51.52 22.85ZM50.59 24.32L49.20 28.39L51.81 28.39L50.59 24.32Z M59.40 22.87L59.40 23.68L58.39 23.99L58.39 30.93L59.40 31.19L59.40 32L55.78 32L55.78 31.19L56.79 30.92L56.79 23.99L55.78 23.74L55.78 22.94L59.40 22.87Z M65.62 21.52L66.73 21.52L63.38 33.08L62.28 33.08L65.62 21.52Z M79.99 22.87L79.99 23.68L78.98 23.99L78.98 30.92L79.99 31.19L79.99 32L76.50 32L76.50 31.19L77.51 30.93L77.51 25.06L75.18 29.62L74.16 29.69L71.92 25.06L71.92 30.93L72.94 31.19L72.94 32L69.61 32L69.61 31.19L70.62 30.93L70.62 23.99L69.61 23.74L69.61 22.94L72.58 22.87L74.86 27.89L77.23 22.94L79.99 22.87Z M86.25 30.84L86.49 29.39L87.44 29.39L87.44 32L81.03 32L81.03 31.19L82.05 30.93L82.05 23.98L81.03 23.74L81.03 22.94L84.77 22.87L84.77 23.68L83.65 23.98L83.65 30.84L86.25 30.84Z" fill="#262b21"/><g><rect x="16" y="48" width="94" height="24" rx="10" fill="#fedabd"/><rect x="20" y="49" width="22" height="22" rx="8" fill="rgba(255,255,255,0.65)"/><path d="M28.91 60.89L28.91 60.89L28.38 60.89L28.38 62.52L29.38 62.74L29.38 63.50L26.10 63.50L26.10 62.74L26.88 62.51L26.88 57.12L26.10 56.92L26.10 56.16L28.41 56.11L29.37 56.11Q30.24 56.11 30.80 56.41Q31.35 56.71 31.62 57.22Q31.89 57.74 31.89 58.39L31.89 58.39Q31.89 59.09 31.57 59.66Q31.25 60.23 30.59 60.56Q29.93 60.89 28.91 60.89ZM29.13 57.18L29.13 57.18L28.38 57.18L28.38 59.80L28.92 59.80Q29.62 59.80 29.99 59.43Q30.35 59.05 30.35 58.42L30.35 58.42Q30.35 57.84 30.04 57.51Q29.73 57.18 29.13 57.18Z M34.48 63.63L34.48 63.63Q33.76 63.63 33.38 63.19Q33.01 62.75 33.01 61.89L33.01 61.89L33.01 58.87L32.19 58.87L32.19 58.08L33.01 57.89L33.01 56.66L34.49 56.40L34.49 57.89L35.93 57.89L35.91 58.87L34.49 58.87L34.49 61.69Q34.49 62.15 34.64 62.34Q34.79 62.54 35.08 62.54L35.08 62.54Q35.25 62.54 35.45 62.49Q35.66 62.43 35.90 62.33L35.90 62.33L36.17 63.14Q35.29 63.63 34.48 63.63Z" fill="#673b26"/><path d="M52.65 60.66L52.65 60.66L51.71 60.66L51.71 63.24L53.09 63.46L53.09 64L49.61 64L49.61 63.46L50.69 63.24L50.69 56.06L49.61 55.88L49.61 55.34L51.74 55.27L53.15 55.27Q54.11 55.27 54.74 55.60Q55.36 55.92 55.67 56.50Q55.99 57.08 55.99 57.84L55.99 57.84Q55.99 58.67 55.61 59.31Q55.24 59.95 54.49 60.31Q53.75 60.66 52.65 60.66ZM53 56.04L53 56.04L51.71 56.04L51.71 59.90L52.65 59.90Q53.75 59.90 54.34 59.35Q54.94 58.80 54.94 57.86L54.94 57.86Q54.94 57.01 54.44 56.52Q53.95 56.04 53 56.04Z M56.64 66.92L56.64 66.92L56.73 66.19Q56.88 66.21 57.01 66.22Q57.14 66.24 57.25 66.24L57.25 66.24Q57.86 66.24 58.24 65.96Q58.63 65.67 58.89 65.11L58.89 65.11Q59.11 64.64 59.34 63.96L59.34 63.96L57.09 58.10L56.38 57.98L56.38 57.44L59.11 57.35L59.11 57.90L58.10 58.08L59.80 62.94L61.45 58.10L60.46 57.98L60.46 57.44L63.11 57.35L63.11 57.90L62.39 58.06L60.21 64.03Q59.99 64.65 59.74 65.19Q59.50 65.72 59.19 66.13Q58.88 66.54 58.43 66.76Q57.98 66.99 57.34 66.99L57.34 66.99Q57.05 66.99 56.64 66.92Z M68.47 64L64.96 64L64.96 63.46L66.21 63.24L66.21 56.04L64.24 56.04L64.03 57.41L63.40 57.41L63.40 55.27L70.04 55.27L70.04 57.41L69.41 57.41L69.19 56.04L67.22 56.04L67.22 63.24L68.47 63.46L68.47 64Z M74.05 57.29L74.05 57.29Q75.42 57.29 76.21 58.15Q76.99 59.01 76.99 60.59L76.99 60.59Q76.99 61.65 76.61 62.44Q76.22 63.24 75.53 63.67Q74.83 64.11 73.84 64.11L73.84 64.11Q72.49 64.11 71.72 63.27Q70.96 62.42 70.96 60.84L70.96 60.84Q70.96 59.74 71.33 58.94Q71.70 58.15 72.39 57.72Q73.09 57.29 74.05 57.29ZM74 58.02L74 58.02Q73.04 58.02 72.53 58.75Q72.01 59.48 72.01 60.79L72.01 60.79Q72.01 62.08 72.50 62.73Q72.99 63.38 73.90 63.38L73.90 63.38Q74.56 63.38 75.02 63.04Q75.47 62.71 75.71 62.10Q75.94 61.49 75.94 60.64L75.94 60.64Q75.94 59.36 75.43 58.69Q74.92 58.02 74 58.02Z M81.22 64L78.04 64L78.04 63.46L79.01 63.25L79.01 58.19L78.04 57.98L78.04 57.44L79.79 57.35L79.90 58.40Q80.41 57.90 80.89 57.61L80.89 57.61Q81.42 57.29 82.06 57.29L82.06 57.29Q82.46 57.29 82.90 57.41L82.90 57.41L82.83 59.16L82.20 59.16L82.08 58.13Q82.03 58.13 81.97 58.11L81.97 58.11Q81.88 58.10 81.78 58.10L81.78 58.10Q81.28 58.10 80.81 58.40L80.81 58.40Q80.39 58.66 80.01 59.06L80.01 59.06L80.01 63.25L81.22 63.46L81.22 64Z M86.49 64.11L86.49 64.11Q85.69 64.11 85.04 63.72Q84.40 63.33 84.03 62.58Q83.66 61.83 83.66 60.77L83.66 60.77Q83.66 59.86 83.92 59.21Q84.18 58.55 84.61 58.13Q85.05 57.70 85.62 57.49Q86.19 57.29 86.80 57.29L86.80 57.29Q87.30 57.29 87.87 57.42Q88.44 57.56 88.86 57.80L88.86 57.80L88.81 59.36L88.14 59.36L87.99 58.26Q87.71 58.14 87.41 58.09L87.41 58.09Q87.06 58.02 86.79 58.02L86.79 58.02Q86.14 58.02 85.67 58.36Q85.20 58.69 84.95 59.29Q84.70 59.89 84.70 60.71L84.70 60.71Q84.70 61.56 84.96 62.15Q85.23 62.74 85.68 63.04Q86.14 63.34 86.71 63.34L86.71 63.34Q87.16 63.34 87.66 63.15Q88.16 62.96 88.70 62.59L88.70 62.59L89.05 63.14Q88.40 63.64 87.75 63.88Q87.10 64.11 86.49 64.11Z M92.74 64L89.83 64L89.83 63.46L90.80 63.25L90.80 55.19L89.83 54.98L89.83 54.44L91.80 54.35L91.80 58.31Q92.31 57.84 92.89 57.59L92.89 57.59Q93.56 57.29 94.17 57.29L94.17 57.29Q94.72 57.29 95.16 57.51Q95.60 57.74 95.84 58.19Q96.09 58.65 96.08 59.35L96.08 59.35L96.08 63.25L97.06 63.46L97.06 64L94.14 64L94.14 63.46L95.08 63.26L95.08 59.58Q95.10 58.80 94.74 58.44Q94.38 58.08 93.79 58.08L93.79 58.08Q93.33 58.08 92.79 58.33L92.79 58.33Q92.29 58.55 91.80 59.02L91.80 59.02L91.80 63.26L92.74 63.46L92.74 64Z" fill="#673b26"/></g><g><rect x="116" y="48" width="114" height="24" rx="10" fill="#f7ecbe"/><rect x="120" y="49" width="22" height="22" rx="8" fill="rgba(255,255,255,0.65)"/><path d="M130.69 63.50L127.39 63.50L127.39 62.74L128.28 62.52L128.28 57.19L127.15 57.19L126.93 58.23L126.03 58.23L126.03 56.11L132.04 56.11L132.04 58.23L131.15 58.23L130.94 57.19L129.79 57.19L129.79 62.51L130.69 62.74L130.69 63.50Z M135.59 63.50L132.57 63.50L132.57 62.74L133.28 62.54L133.28 58.92L132.54 58.92L132.54 58.13L133.28 57.95L133.28 57.45Q133.28 56.33 133.88 55.79Q134.48 55.25 135.48 55.25L135.48 55.25Q135.78 55.25 136.09 55.30Q136.40 55.35 136.75 55.45L136.75 55.45L136.54 56.42Q136.34 56.36 136.13 56.32Q135.92 56.29 135.74 56.29L135.74 56.29Q135.30 56.29 135.03 56.52Q134.75 56.76 134.75 57.33L134.75 57.33L134.75 57.95L136.06 57.95L136.03 58.92L134.75 58.92L134.75 62.53L135.59 62.74L135.59 63.50Z" fill="#553d1a"/><path d="M154.41 64L150.90 64L150.90 63.46L152.15 63.24L152.15 56.04L150.18 56.04L149.96 57.41L149.34 57.41L149.34 55.27L155.97 55.27L155.97 57.41L155.35 57.41L155.13 56.04L153.16 56.04L153.16 63.24L154.41 63.46L154.41 64Z M159.76 64.11L159.76 64.11Q158.93 64.11 158.28 63.73Q157.64 63.35 157.28 62.61Q156.91 61.88 156.91 60.81L156.91 60.81Q156.91 59.73 157.29 58.94Q157.66 58.15 158.35 57.72Q159.04 57.29 159.96 57.29L159.96 57.29Q160.84 57.29 161.41 57.66Q161.97 58.02 162.26 58.67Q162.54 59.33 162.54 60.16L162.54 60.16Q162.54 60.30 162.53 60.44Q162.51 60.58 162.49 60.77L162.49 60.77L157.95 60.77Q157.96 61.54 158.19 62.09L158.19 62.09Q158.43 62.69 158.88 63.01Q159.34 63.34 160 63.34L160 63.34Q160.46 63.34 161.01 63.16Q161.56 62.98 162.15 62.60L162.15 62.60L162.51 63.16Q161.81 63.64 161.11 63.88Q160.41 64.11 159.76 64.11ZM157.99 60.06L157.99 60.06L161.50 60.06Q161.50 59.54 161.36 59.10L161.36 59.10Q161.21 58.63 160.85 58.34Q160.49 58.05 159.89 58.05L159.89 58.05Q159.25 58.05 158.81 58.39Q158.38 58.73 158.16 59.31L158.16 59.31Q158.04 59.65 157.99 60.06Z M166.54 64L163.63 64L163.63 63.46L164.60 63.25L164.60 58.17L163.63 57.98L163.63 57.44L165.38 57.35L165.49 58.41Q166.06 57.86 166.69 57.59L166.69 57.59Q167.36 57.29 167.97 57.29L167.97 57.29Q168.80 57.29 169.34 57.79Q169.89 58.30 169.88 59.36L169.88 59.36L169.88 63.25L170.85 63.46L170.85 64L167.94 64L167.94 63.46L168.88 63.26L168.88 59.58Q168.88 58.80 168.53 58.44Q168.18 58.08 167.59 58.08L167.59 58.08Q167.13 58.08 166.59 58.33L166.59 58.33Q166.09 58.55 165.60 59.01L165.60 59.01L165.60 63.26L166.54 63.46L166.54 64Z M172.80 59L172.80 59Q172.80 59.40 173.06 59.63Q173.32 59.85 173.74 59.99Q174.15 60.14 174.61 60.27Q175.07 60.41 175.49 60.61Q175.90 60.81 176.16 61.16Q176.43 61.51 176.43 62.09L176.43 62.09Q176.43 62.75 176.06 63.20Q175.70 63.65 175.08 63.88Q174.46 64.11 173.70 64.11L173.70 64.11Q173.24 64.11 172.75 64.04Q172.26 63.96 171.75 63.83L171.75 63.83L171.84 62.15L172.47 62.15L172.59 63.26Q172.84 63.33 173.11 63.36L173.11 63.36Q173.45 63.41 173.74 63.41L173.74 63.41Q174.19 63.41 174.57 63.28Q174.95 63.15 175.19 62.89Q175.43 62.64 175.43 62.25L175.43 62.25Q175.43 61.84 175.17 61.60Q174.91 61.36 174.50 61.21Q174.09 61.06 173.63 60.93Q173.18 60.80 172.76 60.59Q172.35 60.39 172.09 60.05Q171.82 59.71 171.82 59.13L171.82 59.13Q171.82 58.49 172.16 58.08Q172.49 57.67 173.03 57.48Q173.57 57.29 174.20 57.29L174.20 57.29Q174.63 57.29 175.14 57.38Q175.65 57.46 176.19 57.64L176.19 57.64L176.13 59.05L175.49 59.05L175.32 58.15Q174.75 58 174.22 58L174.22 58Q173.61 58 173.21 58.26Q172.80 58.51 172.80 59Z M180.71 57.29L180.71 57.29Q182.09 57.29 182.87 58.15Q183.65 59.01 183.65 60.59L183.65 60.59Q183.65 61.65 183.27 62.44Q182.89 63.24 182.19 63.67Q181.49 64.11 180.50 64.11L180.50 64.11Q179.15 64.11 178.39 63.27Q177.63 62.42 177.63 60.84L177.63 60.84Q177.63 59.74 177.99 58.94Q178.36 58.15 179.06 57.72Q179.75 57.29 180.71 57.29ZM180.66 58.02L180.66 58.02Q179.70 58.02 179.19 58.75Q178.67 59.48 178.67 60.79L178.67 60.79Q178.67 62.08 179.16 62.73Q179.65 63.38 180.56 63.38L180.56 63.38Q181.22 63.38 181.68 63.04Q182.14 62.71 182.37 62.10Q182.60 61.49 182.60 60.64L182.60 60.64Q182.60 59.36 182.09 58.69Q181.59 58.02 180.66 58.02Z M187.89 64L184.70 64L184.70 63.46L185.67 63.25L185.67 58.19L184.70 57.98L184.70 57.44L186.45 57.35L186.56 58.40Q187.07 57.90 187.55 57.61L187.55 57.61Q188.09 57.29 188.72 57.29L188.72 57.29Q189.13 57.29 189.56 57.41L189.56 57.41L189.49 59.16L188.86 59.16L188.74 58.13Q188.69 58.13 188.64 58.11L188.64 58.11Q188.54 58.10 188.44 58.10L188.44 58.10Q187.94 58.10 187.47 58.40L187.47 58.40Q187.05 58.66 186.67 59.06L186.67 59.06L186.67 63.25L187.89 63.46L187.89 64Z M193.81 64L190.36 64L190.36 63.46L191.44 63.24L191.44 56.06L190.36 55.88L190.36 55.34L192.45 55.27L196.41 55.27L196.43 57.26L195.80 57.26L195.60 56.04L192.46 56.04L192.46 59.26L195.49 59.26L195.49 60.02L192.46 60.02L192.46 63.24L193.81 63.46L193.81 64Z M199.10 54.35L199.10 63.25L200.09 63.46L200.09 64L197.13 64L197.13 63.46L198.10 63.25L198.10 55.17L197.13 54.98L197.13 54.44L199.10 54.35Z M204.08 57.29L204.08 57.29Q205.45 57.29 206.23 58.15Q207.01 59.01 207.01 60.59L207.01 60.59Q207.01 61.65 206.63 62.44Q206.25 63.24 205.55 63.67Q204.85 64.11 203.86 64.11L203.86 64.11Q202.51 64.11 201.75 63.27Q200.99 62.42 200.99 60.84L200.99 60.84Q200.99 59.74 201.36 58.94Q201.72 58.15 202.42 57.72Q203.11 57.29 204.08 57.29ZM204.03 58.02L204.03 58.02Q203.06 58.02 202.55 58.75Q202.04 59.48 202.04 60.79L202.04 60.79Q202.04 62.08 202.53 62.73Q203.01 63.38 203.93 63.38L203.93 63.38Q204.59 63.38 205.04 63.04Q205.50 62.71 205.73 62.10Q205.96 61.49 205.96 60.64L205.96 60.64Q205.96 59.36 205.46 58.69Q204.95 58.02 204.03 58.02Z M215.13 57.98L215.13 57.44L217.64 57.35L217.64 57.90L216.90 58.08L215.22 64.03L214.13 64.03L212.60 58.48L210.97 64.03L209.88 64.03L208.28 58.11L207.53 57.98L207.53 57.44L210.22 57.35L210.22 57.90L209.22 58.08L210.51 63.11L212.10 57.42L213.19 57.35L214.72 63.15L216.08 58.11L215.13 57.98Z" fill="#553d1a"/></g><g><rect x="236" y="48" width="79" height="24" rx="10" fill="#ffd5d1"/><rect x="240" y="49" width="22" height="22" rx="8" fill="rgba(255,255,255,0.65)"/><path d="M249.53 59.65L251.50 62.54L252.17 62.74L252.17 63.50L249.18 63.50L249.18 62.74L249.82 62.52L248.34 60.27L247.42 60.27L247.42 62.50L248.15 62.74L248.15 63.50L245.14 63.50L245.14 62.74L245.92 62.51L245.92 57.12L245.14 56.92L245.14 56.16L248.15 56.11L248.15 56.84L247.42 57.09L247.42 59.18L248.41 59.18L249.66 57.06L248.99 56.92L248.99 56.16L251.83 56.11L251.83 56.86L251.11 57.09L249.53 59.65Z M255.65 63.50L252.61 63.50L252.61 62.74L253.31 62.54L253.31 58.89L252.61 58.68L252.61 57.92L254.45 57.84L254.60 58.64Q255.00 58.26 255.39 58.03L255.39 58.03Q255.85 57.77 256.38 57.77L256.38 57.77Q256.71 57.77 257.09 57.87L257.09 57.87L257.00 59.78L256.13 59.78L256.02 58.93Q256.01 58.93 256.00 58.93L256.00 58.93Q255.92 58.92 255.86 58.92L255.86 58.92Q255.54 58.92 255.22 59.12L255.22 59.12Q254.97 59.27 254.78 59.49L254.78 59.49L254.78 62.54L255.65 62.74L255.65 63.50Z" fill="#6e3d3d"/><path d="M274.02 59.46L276.69 63.25L277.68 63.46L277.68 64L274.56 64L274.56 63.46L275.52 63.25L273.24 59.91L271.71 59.91L271.71 63.23L272.77 63.46L272.77 64L269.61 64L269.61 63.46L270.69 63.24L270.69 56.05L269.61 55.88L269.61 55.34L272.77 55.27L272.77 55.81L271.71 56.05L271.71 59.15L273.25 59.15L275.15 56.02L274.14 55.88L274.14 55.34L277.18 55.27L277.18 55.81L276.14 56.05L274.02 59.46Z M281.31 64.11L281.31 64.11Q280.48 64.11 279.83 63.73Q279.19 63.35 278.82 62.61Q278.46 61.88 278.46 60.81L278.46 60.81Q278.46 59.73 278.84 58.94Q279.21 58.15 279.90 57.72Q280.59 57.29 281.51 57.29L281.51 57.29Q282.39 57.29 282.96 57.66Q283.53 58.02 283.81 58.67Q284.09 59.33 284.09 60.16L284.09 60.16Q284.09 60.30 284.07 60.44Q284.06 60.58 284.04 60.77L284.04 60.77L279.50 60.77Q279.51 61.54 279.74 62.09L279.74 62.09Q279.98 62.69 280.43 63.01Q280.89 63.34 281.55 63.34L281.55 63.34Q282.01 63.34 282.56 63.16Q283.11 62.98 283.70 62.60L283.70 62.60L284.06 63.16Q283.36 63.64 282.66 63.88Q281.96 64.11 281.31 64.11ZM279.54 60.06L279.54 60.06L283.05 60.06Q283.05 59.54 282.91 59.10L282.91 59.10Q282.76 58.63 282.40 58.34Q282.04 58.05 281.44 58.05L281.44 58.05Q280.80 58.05 280.36 58.39Q279.93 58.73 279.71 59.31L279.71 59.31Q279.59 59.65 279.54 60.06Z M288.36 64L285.18 64L285.18 63.46L286.15 63.25L286.15 58.19L285.18 57.98L285.18 57.44L286.93 57.35L287.04 58.40Q287.55 57.90 288.02 57.61L288.02 57.61Q288.56 57.29 289.20 57.29L289.20 57.29Q289.60 57.29 290.04 57.41L290.04 57.41L289.96 59.16L289.34 59.16L289.21 58.13Q289.16 58.13 289.11 58.11L289.11 58.11Q289.01 58.10 288.91 58.10L288.91 58.10Q288.41 58.10 287.95 58.40L287.95 58.40Q287.52 58.66 287.15 59.06L287.15 59.06L287.15 63.25L288.36 63.46L288.36 64Z M295.84 59.15L295.84 63.25L296.82 63.44L296.82 63.99L295.07 64.06L294.94 62.98Q294.42 63.52 293.82 63.80L293.82 63.80Q293.19 64.11 292.59 64.11L292.59 64.11Q291.86 64.11 291.36 63.65Q290.86 63.19 290.86 62.25L290.86 62.25Q290.86 61.51 291.17 61.12Q291.49 60.73 292.04 60.56Q292.59 60.40 293.31 60.40L293.31 60.40L294.84 60.40L294.84 59.33Q294.84 58.64 294.47 58.34Q294.11 58.05 293.47 58.05L293.47 58.05Q293.14 58.05 292.76 58.11L292.76 58.11Q292.44 58.17 292.09 58.29L292.09 58.29L291.97 59.31L291.31 59.31L291.21 57.76Q291.92 57.52 292.55 57.41Q293.17 57.29 293.70 57.29L293.70 57.29Q294.70 57.29 295.27 57.73Q295.84 58.17 295.84 59.15L295.84 59.15ZM291.87 62.16L291.87 62.16Q291.87 62.77 292.17 63.06Q292.46 63.35 292.91 63.35L292.91 63.35Q293.35 63.35 293.89 63.08L293.89 63.08Q294.37 62.84 294.84 62.41L294.84 62.41L294.84 61.05L293.46 61.05Q292.57 61.05 292.22 61.32Q291.87 61.59 291.87 62.16Z M298.80 59L298.80 59Q298.80 59.40 299.06 59.63Q299.32 59.85 299.74 59.99Q300.15 60.14 300.61 60.27Q301.07 60.41 301.49 60.61Q301.90 60.81 302.16 61.16Q302.42 61.51 302.42 62.09L302.42 62.09Q302.42 62.75 302.06 63.20Q301.70 63.65 301.08 63.88Q300.46 64.11 299.70 64.11L299.70 64.11Q299.24 64.11 298.75 64.04Q298.26 63.96 297.75 63.83L297.75 63.83L297.84 62.15L298.47 62.15L298.59 63.26Q298.84 63.33 299.11 63.36L299.11 63.36Q299.45 63.41 299.74 63.41L299.74 63.41Q300.19 63.41 300.57 63.28Q300.95 63.15 301.19 62.89Q301.42 62.64 301.42 62.25L301.42 62.25Q301.42 61.84 301.17 61.60Q300.91 61.36 300.50 61.21Q300.09 61.06 299.63 60.93Q299.17 60.80 298.76 60.59Q298.35 60.39 298.09 60.05Q297.82 59.71 297.82 59.13L297.82 59.13Q297.82 58.49 298.16 58.08Q298.49 57.67 299.03 57.48Q299.57 57.29 300.20 57.29L300.20 57.29Q300.62 57.29 301.14 57.38Q301.65 57.46 302.19 57.64L302.19 57.64L302.12 59.05L301.49 59.05L301.32 58.15Q300.75 58 300.22 58L300.22 58Q299.61 58 299.21 58.26Q298.80 58.51 298.80 59Z" fill="#6e3d3d"/></g><g><rect x="321" y="48" width="129" height="24" rx="10" fill="#f1d0be"/><rect x="325" y="49" width="22" height="22" rx="8" fill="rgba(255,255,255,0.65)"/><path d="M331.77 57.97L331.77 57.97Q331.77 58.27 331.98 58.47Q332.19 58.67 332.53 58.81Q332.87 58.95 333.28 59.08Q333.68 59.22 334.08 59.38Q334.48 59.54 334.82 59.79Q335.17 60.03 335.37 60.41Q335.57 60.79 335.57 61.36L335.57 61.36Q335.57 62.13 335.17 62.64Q334.77 63.14 334.09 63.39Q333.42 63.64 332.60 63.64L332.60 63.64Q332.05 63.64 331.46 63.53Q330.88 63.42 330.31 63.20L330.31 63.20L330.37 61.20L331.24 61.20L331.43 62.26Q331.69 62.38 331.99 62.44L331.99 62.44Q332.34 62.52 332.68 62.52L332.68 62.52Q333.07 62.52 333.39 62.42Q333.72 62.31 333.91 62.09Q334.09 61.87 334.09 61.55Q334.09 61.22 333.89 61.01Q333.70 60.80 333.35 60.66Q333.01 60.52 332.61 60.40Q332.21 60.28 331.81 60.12Q331.41 59.96 331.06 59.72Q330.72 59.48 330.52 59.11Q330.32 58.73 330.32 58.17L330.32 58.17Q330.32 57.42 330.68 56.94Q331.04 56.47 331.65 56.22Q332.26 55.98 333.02 55.98L333.02 55.98Q333.57 55.98 334.16 56.10Q334.75 56.21 335.33 56.44L335.33 56.44L335.22 58.28L334.33 58.28L334.13 57.25Q333.93 57.18 333.72 57.14L333.72 57.14Q333.41 57.08 333.11 57.08L333.11 57.08Q332.75 57.08 332.45 57.17Q332.14 57.26 331.96 57.46Q331.77 57.65 331.77 57.97Z M339.04 63.50L336.20 63.50L336.20 62.74L336.90 62.54L336.90 56.37L336.20 56.17L336.20 55.41L338.37 55.33L338.37 59.94L339.23 59.94L339.97 58.79L339.43 58.68L339.43 57.94L341.99 57.85L341.99 58.60L341.40 58.73L340.34 60.31L341.54 62.58L342.20 62.75L342.20 63.50L340.50 63.50L339.21 60.92L338.37 60.92L338.37 62.52L339.04 62.74L339.04 63.50Z" fill="#5e3729"/><path d="M355.74 59L355.74 59Q355.74 59.40 356 59.63Q356.26 59.85 356.68 59.99Q357.09 60.14 357.55 60.27Q358.01 60.41 358.43 60.61Q358.84 60.81 359.10 61.16Q359.36 61.51 359.36 62.09L359.36 62.09Q359.36 62.75 359 63.20Q358.64 63.65 358.02 63.88Q357.40 64.11 356.64 64.11L356.64 64.11Q356.18 64.11 355.69 64.04Q355.20 63.96 354.69 63.83L354.69 63.83L354.77 62.15L355.41 62.15L355.52 63.26Q355.77 63.33 356.05 63.36L356.05 63.36Q356.39 63.41 356.68 63.41L356.68 63.41Q357.13 63.41 357.51 63.28Q357.89 63.15 358.13 62.89Q358.36 62.64 358.36 62.25L358.36 62.25Q358.36 61.84 358.11 61.60Q357.85 61.36 357.44 61.21Q357.02 61.06 356.57 60.93Q356.11 60.80 355.70 60.59Q355.29 60.39 355.02 60.05Q354.76 59.71 354.76 59.13L354.76 59.13Q354.76 58.49 355.09 58.08Q355.43 57.67 355.97 57.48Q356.51 57.29 357.14 57.29L357.14 57.29Q357.56 57.29 358.07 57.38Q358.59 57.46 359.13 57.64L359.13 57.64L359.06 59.05L358.43 59.05L358.26 58.15Q357.69 58 357.16 58L357.16 58Q356.55 58 356.14 58.26Q355.74 58.51 355.74 59Z M363.38 64.11L363.38 64.11Q362.58 64.11 361.93 63.72Q361.29 63.33 360.92 62.58Q360.55 61.83 360.55 60.77L360.55 60.77Q360.55 59.86 360.81 59.21Q361.06 58.55 361.50 58.13Q361.94 57.70 362.51 57.49Q363.08 57.29 363.69 57.29L363.69 57.29Q364.19 57.29 364.76 57.42Q365.33 57.56 365.75 57.80L365.75 57.80L365.70 59.36L365.03 59.36L364.88 58.26Q364.60 58.14 364.30 58.09L364.30 58.09Q363.95 58.02 363.68 58.02L363.68 58.02Q363.03 58.02 362.56 58.36Q362.09 58.69 361.84 59.29Q361.59 59.89 361.59 60.71L361.59 60.71Q361.59 61.56 361.85 62.15Q362.11 62.74 362.57 63.04Q363.03 63.34 363.60 63.34L363.60 63.34Q364.05 63.34 364.55 63.15Q365.05 62.96 365.59 62.59L365.59 62.59L365.94 63.14Q365.29 63.64 364.64 63.88Q363.99 64.11 363.38 64.11Z M368.84 57.36L368.84 63.25L369.81 63.46L369.81 64L366.86 64L366.86 63.46L367.84 63.25L367.84 58.17L366.86 57.98L366.86 57.44L368.84 57.36ZM368.26 56.01L368.26 56.01Q367.98 56.01 367.79 55.83Q367.60 55.64 367.60 55.31L367.60 55.31Q367.60 54.98 367.79 54.79Q367.99 54.61 368.28 54.61L368.28 54.61Q368.58 54.61 368.76 54.79Q368.95 54.96 368.95 55.31L368.95 55.31Q368.95 55.65 368.75 55.83Q368.55 56.01 368.26 56.01Z M373.35 64L370.41 64L370.41 63.46L371.40 63.25L371.40 55.17L370.41 54.98L370.41 54.44L372.40 54.35L372.40 60L373.76 60L374.93 58.10L374.06 57.98L374.06 57.44L376.80 57.35L376.80 57.89L375.89 58.08L374.54 60.25L376.23 63.25L377.14 63.46L377.14 64L375.58 64L373.76 60.70L372.40 60.70L372.40 63.25L373.35 63.46L373.35 64Z M379.65 57.36L379.65 63.25L380.63 63.46L380.63 64L377.68 64L377.68 63.46L378.65 63.25L378.65 58.17L377.68 57.98L377.68 57.44L379.65 57.36ZM379.08 56.01L379.08 56.01Q378.79 56.01 378.60 55.83Q378.41 55.64 378.41 55.31L378.41 55.31Q378.41 54.98 378.61 54.79Q378.80 54.61 379.09 54.61L379.09 54.61Q379.39 54.61 379.58 54.79Q379.76 54.96 379.76 55.31L379.76 55.31Q379.76 55.65 379.56 55.83Q379.36 56.01 379.08 56.01Z M383.61 64.11L383.61 64.11Q382.96 64.11 382.59 63.71Q382.21 63.30 382.21 62.48L382.21 62.48L382.21 58.10L381.09 58.10L381.09 57.55L382.21 57.39L382.21 55.91L383.21 55.75L383.21 57.40L385.04 57.40L385.00 58.10L383.21 58.10L383.21 62.34Q383.21 62.86 383.42 63.10Q383.63 63.34 384.00 63.34L384.00 63.34Q384.23 63.34 384.49 63.26Q384.75 63.19 385.05 63.05L385.05 63.05L385.26 63.63Q384.38 64.11 383.61 64.11Z M386.53 59.94L390.10 59.94L390.10 60.73L386.53 60.73L386.53 59.94Z M393.48 54.35L393.48 63.25L394.46 63.46L394.46 64L391.50 64L391.50 63.46L392.48 63.25L392.48 55.17L391.50 54.98L391.50 54.44L393.48 54.35Z M398.23 64.11L398.23 64.11Q397.39 64.11 396.74 63.73Q396.10 63.35 395.74 62.61Q395.38 61.88 395.38 60.81L395.38 60.81Q395.38 59.73 395.75 58.94Q396.13 58.15 396.81 57.72Q397.50 57.29 398.43 57.29L398.43 57.29Q399.30 57.29 399.87 57.66Q400.44 58.02 400.72 58.67Q401.00 59.33 401.00 60.16L401.00 60.16Q401.00 60.30 400.99 60.44Q400.98 60.58 400.95 60.77L400.95 60.77L396.41 60.77Q396.43 61.54 396.65 62.09L396.65 62.09Q396.89 62.69 397.34 63.01Q397.80 63.34 398.46 63.34L398.46 63.34Q398.93 63.34 399.48 63.16Q400.03 62.98 400.61 62.60L400.61 62.60L400.98 63.16Q400.28 63.64 399.58 63.88Q398.88 64.11 398.23 64.11ZM396.45 60.06L396.45 60.06L399.96 60.06Q399.96 59.54 399.83 59.10L399.83 59.10Q399.68 58.63 399.31 58.34Q398.95 58.05 398.35 58.05L398.35 58.05Q397.71 58.05 397.28 58.39Q396.84 58.73 396.63 59.31L396.63 59.31Q396.50 59.65 396.45 60.06Z M407.23 59.15L407.23 63.25L408.21 63.44L408.21 63.99L406.46 64.06L406.33 62.98Q405.81 63.52 405.21 63.80L405.21 63.80Q404.58 64.11 403.98 64.11L403.98 64.11Q403.25 64.11 402.75 63.65Q402.25 63.19 402.25 62.25L402.25 62.25Q402.25 61.51 402.56 61.12Q402.88 60.73 403.43 60.56Q403.98 60.40 404.70 60.40L404.70 60.40L406.23 60.40L406.23 59.33Q406.23 58.64 405.86 58.34Q405.50 58.05 404.86 58.05L404.86 58.05Q404.53 58.05 404.15 58.11L404.15 58.11Q403.83 58.17 403.48 58.29L403.48 58.29L403.36 59.31L402.70 59.31L402.60 57.76Q403.31 57.52 403.94 57.41Q404.56 57.29 405.09 57.29L405.09 57.29Q406.09 57.29 406.66 57.73Q407.23 58.17 407.23 59.15L407.23 59.15ZM403.26 62.16L403.26 62.16Q403.26 62.77 403.56 63.06Q403.85 63.35 404.30 63.35L404.30 63.35Q404.74 63.35 405.28 63.08L405.28 63.08Q405.76 62.84 406.23 62.41L406.23 62.41L406.23 61.05L404.85 61.05Q403.96 61.05 403.61 61.32Q403.26 61.59 403.26 62.16Z M412.11 64L408.93 64L408.93 63.46L409.90 63.25L409.90 58.19L408.93 57.98L408.93 57.44L410.68 57.35L410.79 58.40Q411.30 57.90 411.78 57.61L411.78 57.61Q412.31 57.29 412.95 57.29L412.95 57.29Q413.35 57.29 413.79 57.41L413.79 57.41L413.71 59.16L413.09 59.16L412.96 58.13Q412.91 58.13 412.86 58.11L412.86 58.11Q412.76 58.10 412.66 58.10L412.66 58.10Q412.16 58.10 411.70 58.40L411.70 58.40Q411.28 58.66 410.90 59.06L410.90 59.06L410.90 63.25L412.11 63.46L412.11 64Z M417.36 64L414.45 64L414.45 63.46L415.43 63.25L415.43 58.17L414.45 57.98L414.45 57.44L416.20 57.35L416.31 58.41Q416.89 57.86 417.51 57.59L417.51 57.59Q418.19 57.29 418.80 57.29L418.80 57.29Q419.63 57.29 420.17 57.79Q420.71 58.30 420.70 59.36L420.70 59.36L420.70 63.25L421.68 63.46L421.68 64L418.76 64L418.76 63.46L419.70 63.26L419.70 59.58Q419.70 58.80 419.35 58.44Q419 58.08 418.41 58.08L418.41 58.08Q417.95 58.08 417.41 58.33L417.41 58.33Q416.91 58.55 416.43 59.01L416.43 59.01L416.43 63.26L417.36 63.46L417.36 64Z" fill="#5e3729"/></g><g><rect x="16" y="80" width="79" height="24" rx="10" fill="#c4e8fa"/><rect x="20" y="81" width="22" height="22" rx="8" fill="rgba(255,255,255,0.65)"/><path d="M28.83 88.92L28.83 88.16L31.61 88.11L31.61 88.86L30.84 89.12L30.84 95.50L29.11 95.50L26.15 90.08L26.15 94.51L26.93 94.74L26.93 95.50L24.13 95.50L24.13 94.74L24.91 94.51L24.91 89.12L24.13 88.92L24.13 88.16L26.70 88.11L29.59 93.40L29.59 89.12L28.83 88.92Z M35.06 97.92L32.07 97.92L32.07 97.16L32.77 96.93L32.77 90.89L32.07 90.68L32.07 89.92L33.92 89.84L34.06 90.55Q34.48 90.20 34.88 90.00L34.88 90.00Q35.35 89.77 35.85 89.77L35.85 89.77Q36.46 89.77 36.92 90.09Q37.38 90.41 37.65 91.03Q37.92 91.66 37.92 92.56L37.92 92.56Q37.92 93.58 37.57 94.26Q37.23 94.94 36.60 95.28Q35.98 95.63 35.15 95.63L35.15 95.63Q34.90 95.63 34.62 95.58L34.62 95.58Q34.43 95.56 34.24 95.53L34.24 95.53L34.24 96.94L35.06 97.16L35.06 97.92ZM34.96 94.59L34.96 94.59Q35.70 94.59 36.05 94.08Q36.39 93.58 36.39 92.71L36.39 92.71Q36.39 92.13 36.25 91.71Q36.11 91.30 35.87 91.07Q35.63 90.85 35.27 90.85L35.27 90.85Q35.00 90.85 34.70 91.00L34.70 91.00Q34.48 91.10 34.24 91.29L34.24 91.29L34.24 94.49Q34.63 94.59 34.96 94.59Z" fill="#1a4d68"/><path d="M55.41 87.88L55.41 87.34L58.45 87.28L58.45 87.81L57.36 88.06L57.36 96L56.21 96L51.56 88.60L51.56 95.24L52.64 95.46L52.64 96L49.61 96L49.61 95.46L50.69 95.24L50.69 88.06L49.61 87.88L49.61 87.34L51.91 87.28L56.50 94.55L56.50 88.06L55.41 87.88Z M62 96.11L62 96.11Q61.16 96.11 60.63 95.60Q60.09 95.09 60.09 94.03L60.09 94.03L60.09 90.19L59.11 89.97L59.11 89.44L61.09 89.36L61.09 93.85Q61.09 94.60 61.44 94.96Q61.79 95.33 62.38 95.33L62.38 95.33Q62.84 95.33 63.39 95.08L63.39 95.08Q63.88 94.85 64.36 94.39L64.36 94.39L64.36 90.19L63.39 89.97L63.39 89.44L65.36 89.35L65.36 95.25L66.35 95.44L66.35 95.99L64.59 96.06L64.46 95Q63.89 95.54 63.29 95.81L63.29 95.81Q62.61 96.11 62 96.11Z M73.11 90.45L73.11 90.45Q73.68 89.90 74.30 89.60L74.30 89.60Q74.99 89.29 75.59 89.29L75.59 89.29Q76.35 89.29 76.87 89.79Q77.39 90.30 77.39 91.35L77.39 91.35L77.39 95.25L78.36 95.46L78.36 96L75.46 96L75.46 95.46L76.39 95.25L76.39 91.58Q76.39 90.80 76.06 90.44Q75.73 90.08 75.20 90.08L75.20 90.08Q74.75 90.08 74.21 90.34L74.21 90.34Q73.71 90.58 73.24 91.04L73.24 91.04Q73.24 91.08 73.25 91.11L73.25 91.11Q73.25 91.21 73.25 91.31L73.25 91.31L73.25 95.25L74.16 95.46L74.16 96L71.34 96L71.34 95.46L72.25 95.26L72.25 91.58Q72.25 90.80 71.92 90.44Q71.59 90.08 71.06 90.08L71.06 90.08Q70.61 90.08 70.08 90.33L70.08 90.33Q69.59 90.55 69.10 91.01L69.10 91.01L69.10 95.26L70.01 95.46L70.01 96L67.13 96L67.13 95.46L68.10 95.25L68.10 90.17L67.13 89.97L67.13 89.44L68.88 89.35L68.99 90.40Q69.55 89.86 70.18 89.59L70.18 89.59Q70.85 89.29 71.46 89.29L71.46 89.29Q72.04 89.29 72.49 89.59L72.49 89.59Q72.91 89.88 73.11 90.45Z M82.23 92.66L82.23 92.66L81.29 92.66L81.29 95.24L82.66 95.46L82.66 96L79.19 96L79.19 95.46L80.26 95.24L80.26 88.06L79.19 87.88L79.19 87.34L81.31 87.28L82.73 87.28Q83.69 87.28 84.31 87.60Q84.94 87.92 85.25 88.50Q85.56 89.08 85.56 89.84L85.56 89.84Q85.56 90.67 85.19 91.31Q84.81 91.95 84.07 92.31Q83.33 92.66 82.23 92.66ZM82.58 88.04L82.58 88.04L81.29 88.04L81.29 91.90L82.23 91.90Q83.33 91.90 83.92 91.35Q84.51 90.80 84.51 89.86L84.51 89.86Q84.51 89.01 84.02 88.53Q83.53 88.04 82.58 88.04Z M86.21 98.92L86.21 98.92L86.30 98.19Q86.45 98.21 86.58 98.22Q86.71 98.24 86.83 98.24L86.83 98.24Q87.44 98.24 87.82 97.96Q88.20 97.67 88.46 97.11L88.46 97.11Q88.69 96.64 88.91 95.96L88.91 95.96L86.66 90.10L85.95 89.97L85.95 89.44L88.69 89.35L88.69 89.90L87.68 90.08L89.38 94.94L91.03 90.10L90.04 89.97L90.04 89.44L92.69 89.35L92.69 89.90L91.96 90.06L89.79 96.03Q89.56 96.65 89.32 97.19Q89.08 97.72 88.76 98.13Q88.45 98.54 88 98.76Q87.55 98.99 86.91 98.99L86.91 98.99Q86.63 98.99 86.21 98.92Z" fill="#1a4d68"/></g><g><rect x="101" y="80" width="87" height="24" rx="10" fill="#e0d9fa"/><rect x="105" y="81" width="22" height="22" rx="8" fill="rgba(255,255,255,0.65)"/><path d="M112.81 92.89L112.81 92.89L112.28 92.89L112.28 94.52L113.28 94.74L113.28 95.50L110.00 95.50L110.00 94.74L110.78 94.51L110.78 89.12L110.00 88.92L110.00 88.16L112.31 88.11L113.27 88.11Q114.14 88.11 114.70 88.41Q115.25 88.71 115.52 89.22Q115.79 89.74 115.79 90.39L115.79 90.39Q115.79 91.09 115.47 91.66Q115.15 92.23 114.49 92.56Q113.84 92.89 112.81 92.89ZM113.03 89.18L113.03 89.18L112.28 89.18L112.28 91.80L112.82 91.80Q113.52 91.80 113.89 91.43Q114.26 91.05 114.26 90.42L114.26 90.42Q114.26 89.84 113.95 89.51Q113.64 89.18 113.03 89.18Z M118.45 95.63L118.45 95.63Q117.84 95.63 117.37 95.31Q116.90 94.99 116.64 94.36Q116.37 93.73 116.37 92.82L116.37 92.82Q116.37 91.27 117.16 90.52Q117.94 89.77 119.37 89.77L119.37 89.77Q119.60 89.77 119.83 89.79L119.83 89.79Q119.94 89.80 120.04 89.81L120.04 89.81L120.04 88.41L119.29 88.16L119.29 87.41L121.51 87.33L121.51 94.52L122.22 94.74L122.22 95.49L120.37 95.57L120.21 94.83Q119.81 95.21 119.41 95.39L119.41 95.39Q118.95 95.63 118.45 95.63ZM119.01 94.54L119.01 94.54Q119.29 94.54 119.59 94.39L119.59 94.39Q119.81 94.28 120.04 94.09L120.04 94.09L120.04 90.91Q119.65 90.82 119.33 90.82L119.33 90.82Q118.58 90.82 118.24 91.32Q117.90 91.81 117.90 92.69L117.90 92.69Q117.90 93.25 118.04 93.67Q118.17 94.09 118.42 94.32Q118.67 94.54 119.01 94.54Z" fill="#47406d"/><path d="M137.65 92.66L137.65 92.66L136.71 92.66L136.71 95.24L138.09 95.46L138.09 96L134.61 96L134.61 95.46L135.69 95.24L135.69 88.06L134.61 87.88L134.61 87.34L136.74 87.28L138.15 87.28Q139.11 87.28 139.74 87.60Q140.36 87.92 140.68 88.50Q140.99 89.08 140.99 89.84L140.99 89.84Q140.99 90.67 140.61 91.31Q140.24 91.95 139.49 92.31Q138.75 92.66 137.65 92.66ZM138 88.04L138 88.04L136.71 88.04L136.71 91.90L137.65 91.90Q138.75 91.90 139.34 91.35Q139.94 90.80 139.94 89.86L139.94 89.86Q139.94 89.01 139.44 88.53Q138.95 88.04 138 88.04Z M147.06 91.15L147.06 95.25L148.05 95.44L148.05 95.99L146.30 96.06L146.16 94.97Q145.65 95.53 145.05 95.80L145.05 95.80Q144.41 96.11 143.81 96.11L143.81 96.11Q143.09 96.11 142.59 95.65Q142.09 95.19 142.09 94.25L142.09 94.25Q142.09 93.51 142.40 93.12Q142.71 92.72 143.26 92.56Q143.81 92.40 144.54 92.40L144.54 92.40L146.06 92.40L146.06 91.33Q146.06 90.64 145.70 90.34Q145.34 90.05 144.70 90.05L144.70 90.05Q144.36 90.05 143.99 90.11L143.99 90.11Q143.66 90.17 143.31 90.29L143.31 90.29L143.20 91.31L142.54 91.31L142.44 89.76Q143.15 89.53 143.77 89.41Q144.40 89.29 144.92 89.29L144.92 89.29Q145.92 89.29 146.49 89.73Q147.06 90.17 147.06 91.15L147.06 91.15ZM143.10 94.16L143.10 94.16Q143.10 94.78 143.39 95.06Q143.69 95.35 144.14 95.35L144.14 95.35Q144.57 95.35 145.11 95.08L145.11 95.08Q145.60 94.84 146.06 94.41L146.06 94.41L146.06 93.05L144.69 93.05Q143.80 93.05 143.45 93.32Q143.10 93.59 143.10 94.16Z M151.67 96L148.76 96L148.76 95.46L149.74 95.25L149.74 90.17L148.76 89.97L148.76 89.44L150.51 89.35L150.63 90.41Q151.20 89.86 151.82 89.59L151.82 89.59Q152.50 89.29 153.11 89.29L153.11 89.29Q153.94 89.29 154.48 89.79Q155.03 90.30 155.01 91.36L155.01 91.36L155.01 95.25L155.99 95.46L155.99 96L153.07 96L153.07 95.46L154.01 95.26L154.01 91.58Q154.01 90.80 153.66 90.44Q153.31 90.08 152.72 90.08L152.72 90.08Q152.26 90.08 151.72 90.33L151.72 90.33Q151.22 90.55 150.74 91.01L150.74 91.01L150.74 95.26L151.67 95.46L151.67 96Z M159.26 96.11L159.26 96.11Q158.57 96.11 158.01 95.73Q157.45 95.35 157.13 94.61Q156.80 93.86 156.80 92.80L156.80 92.80Q156.80 91.06 157.69 90.17Q158.57 89.29 160.13 89.29L160.13 89.29Q160.45 89.29 160.81 89.34L160.81 89.34Q161.06 89.38 161.34 89.44L161.34 89.44L161.34 87.20L160.30 86.97L160.30 86.44L162.34 86.35L162.34 95.24L163.31 95.44L163.31 95.99L161.56 96.06L161.44 95.14Q160.92 95.60 160.41 95.84L160.41 95.84Q159.84 96.11 159.26 96.11ZM159.61 95.35L159.61 95.35Q160.05 95.35 160.52 95.11L160.52 95.11Q160.92 94.91 161.34 94.54L161.34 94.54L161.34 90.24Q160.65 90.03 160.09 90.03L160.09 90.03Q158.99 90.03 158.41 90.74Q157.84 91.45 157.84 92.71L157.84 92.71Q157.84 93.54 158.07 94.13Q158.30 94.72 158.71 95.04Q159.11 95.35 159.61 95.35Z M169.22 91.15L169.22 95.25L170.21 95.44L170.21 95.99L168.46 96.06L168.32 94.97Q167.81 95.53 167.21 95.80L167.21 95.80Q166.57 96.11 165.97 96.11L165.97 96.11Q165.25 96.11 164.75 95.65Q164.25 95.19 164.25 94.25L164.25 94.25Q164.25 93.51 164.56 93.12Q164.87 92.72 165.42 92.56Q165.97 92.40 166.70 92.40L166.70 92.40L168.22 92.40L168.22 91.33Q168.22 90.64 167.86 90.34Q167.50 90.05 166.86 90.05L166.86 90.05Q166.52 90.05 166.15 90.11L166.15 90.11Q165.82 90.17 165.47 90.29L165.47 90.29L165.36 91.31L164.70 91.31L164.60 89.76Q165.31 89.53 165.94 89.41Q166.56 89.29 167.09 89.29L167.09 89.29Q168.09 89.29 168.66 89.73Q169.22 90.17 169.22 91.15L169.22 91.15ZM165.26 94.16L165.26 94.16Q165.26 94.78 165.56 95.06Q165.85 95.35 166.30 95.35L166.30 95.35Q166.74 95.35 167.27 95.08L167.27 95.08Q167.76 94.84 168.22 94.41L168.22 94.41L168.22 93.05L166.85 93.05Q165.96 93.05 165.61 93.32Q165.26 93.59 165.26 94.16Z M172.19 91L172.19 91Q172.19 91.40 172.45 91.63Q172.71 91.85 173.13 91.99Q173.54 92.14 174 92.28Q174.46 92.41 174.88 92.61Q175.29 92.81 175.55 93.16Q175.81 93.51 175.81 94.09L175.81 94.09Q175.81 94.75 175.45 95.20Q175.09 95.65 174.47 95.88Q173.85 96.11 173.09 96.11L173.09 96.11Q172.63 96.11 172.14 96.04Q171.65 95.96 171.14 95.83L171.14 95.83L171.22 94.15L171.86 94.15L171.97 95.26Q172.22 95.33 172.50 95.36L172.50 95.36Q172.84 95.41 173.13 95.41L173.13 95.41Q173.57 95.41 173.96 95.28Q174.34 95.15 174.57 94.89Q174.81 94.64 174.81 94.25L174.81 94.25Q174.81 93.84 174.56 93.60Q174.30 93.36 173.89 93.21Q173.47 93.06 173.02 92.93Q172.56 92.80 172.15 92.59Q171.74 92.39 171.47 92.05Q171.21 91.71 171.21 91.13L171.21 91.13Q171.21 90.49 171.54 90.08Q171.88 89.67 172.42 89.48Q172.96 89.29 173.59 89.29L173.59 89.29Q174.01 89.29 174.52 89.38Q175.04 89.46 175.57 89.64L175.57 89.64L175.51 91.05L174.88 91.05L174.71 90.15Q174.14 90 173.61 90L173.61 90Q173 90 172.59 90.26Q172.19 90.51 172.19 91Z" fill="#47406d"/></g><g><rect x="194" y="80" width="79" height="24" rx="10" fill="#c4e8fa"/><rect x="198" y="81" width="22" height="22" rx="8" fill="rgba(255,255,255,0.65)"/><path d="M205.18 89.97L205.18 89.97Q205.18 90.27 205.39 90.47Q205.60 90.67 205.94 90.81Q206.28 90.95 206.68 91.08Q207.09 91.22 207.49 91.38Q207.89 91.54 208.23 91.79Q208.57 92.03 208.78 92.41Q208.98 92.79 208.98 93.36L208.98 93.36Q208.98 94.14 208.58 94.64Q208.18 95.14 207.50 95.39Q206.83 95.64 206.01 95.64L206.01 95.64Q205.46 95.64 204.87 95.53Q204.29 95.42 203.72 95.20L203.72 95.20L203.78 93.20L204.65 93.20L204.84 94.26Q205.10 94.38 205.40 94.44L205.40 94.44Q205.75 94.52 206.09 94.52L206.09 94.52Q206.47 94.52 206.80 94.42Q207.13 94.31 207.31 94.09Q207.50 93.87 207.50 93.55Q207.50 93.22 207.30 93.01Q207.10 92.80 206.76 92.66Q206.42 92.52 206.02 92.40Q205.62 92.28 205.22 92.12Q204.82 91.96 204.47 91.72Q204.13 91.48 203.93 91.11Q203.73 90.73 203.73 90.17L203.73 90.17Q203.73 89.42 204.09 88.94Q204.45 88.47 205.06 88.22Q205.67 87.98 206.43 87.98L206.43 87.98Q206.98 87.98 207.57 88.10Q208.15 88.21 208.74 88.44L208.74 88.44L208.63 90.28L207.73 90.28L207.54 89.25Q207.34 89.18 207.13 89.14L207.13 89.14Q206.82 89.08 206.52 89.08L206.52 89.08Q206.16 89.08 205.86 89.17Q205.55 89.26 205.37 89.46Q205.18 89.65 205.18 89.97Z M212.31 95.63L212.31 95.63Q211.59 95.63 211.01 95.28Q210.42 94.94 210.09 94.30Q209.75 93.66 209.75 92.75L209.75 92.75Q209.75 91.92 209.99 91.35Q210.23 90.79 210.64 90.43Q211.05 90.08 211.56 89.92Q212.06 89.77 212.60 89.77L212.60 89.77Q213.10 89.77 213.61 89.89Q214.13 90.02 214.45 90.18L214.45 90.18L214.41 91.72L213.47 91.72L213.32 90.90Q213.19 90.87 213.05 90.85L213.05 90.85Q212.82 90.82 212.63 90.82L212.63 90.82Q212.18 90.82 211.88 91.04Q211.58 91.27 211.43 91.68Q211.28 92.10 211.28 92.67L211.28 92.67Q211.28 93.27 211.45 93.69Q211.62 94.11 211.93 94.33Q212.24 94.54 212.65 94.54L212.65 94.54Q212.97 94.54 213.36 94.41Q213.75 94.27 214.17 94.00L214.17 94.00L214.66 94.74Q214.08 95.20 213.49 95.41Q212.90 95.63 212.31 95.63Z" fill="#1a4d68"/><path d="M228.99 89.40L228.99 89.40Q228.99 89.88 229.24 90.17Q229.49 90.47 229.91 90.67Q230.32 90.86 230.82 91.01Q231.32 91.16 231.82 91.34Q232.32 91.53 232.74 91.79Q233.15 92.06 233.41 92.49Q233.66 92.92 233.66 93.58L233.66 93.58Q233.66 94.45 233.22 95.01Q232.78 95.58 232.04 95.84Q231.30 96.11 230.43 96.11L230.43 96.11Q229.80 96.11 229.15 95.98Q228.50 95.85 227.88 95.59L227.88 95.59L227.95 93.54L228.56 93.54L228.75 94.97Q229.14 95.14 229.56 95.22L229.56 95.22Q230.04 95.33 230.49 95.33L230.49 95.33Q231.07 95.33 231.56 95.14Q232.05 94.96 232.35 94.61Q232.65 94.25 232.65 93.71L232.65 93.71Q232.65 93.21 232.39 92.91Q232.14 92.60 231.72 92.40Q231.31 92.20 230.81 92.05Q230.31 91.90 229.81 91.73Q229.31 91.56 228.90 91.30Q228.49 91.04 228.23 90.62Q227.97 90.20 227.97 89.55L227.97 89.55Q227.97 88.75 228.37 88.22Q228.76 87.69 229.44 87.42Q230.13 87.16 230.96 87.16L230.96 87.16Q231.55 87.16 232.19 87.29Q232.82 87.41 233.44 87.67L233.44 87.67L233.34 89.64L232.71 89.64L232.54 88.22Q232.22 88.11 231.86 88.04L231.86 88.04Q231.43 87.95 230.99 87.95L230.99 87.95Q230.47 87.95 230.01 88.09Q229.55 88.24 229.27 88.56Q228.99 88.88 228.99 89.40Z M237.90 96.11L237.90 96.11Q237.10 96.11 236.46 95.72Q235.81 95.33 235.44 94.58Q235.07 93.83 235.07 92.78L235.07 92.78Q235.07 91.86 235.33 91.21Q235.59 90.55 236.03 90.13Q236.46 89.70 237.03 89.49Q237.60 89.29 238.21 89.29L238.21 89.29Q238.71 89.29 239.28 89.42Q239.85 89.56 240.28 89.80L240.28 89.80L240.22 91.36L239.55 91.36L239.40 90.26Q239.13 90.14 238.82 90.09L238.82 90.09Q238.47 90.03 238.20 90.03L238.20 90.03Q237.55 90.03 237.08 90.36Q236.61 90.69 236.36 91.29Q236.11 91.89 236.11 92.71L236.11 92.71Q236.11 93.56 236.38 94.15Q236.64 94.74 237.09 95.04Q237.55 95.34 238.13 95.34L238.13 95.34Q238.57 95.34 239.07 95.15Q239.57 94.96 240.11 94.59L240.11 94.59L240.46 95.14Q239.81 95.64 239.16 95.88Q238.51 96.11 237.90 96.11Z M243.36 89.36L243.36 95.25L244.34 95.46L244.34 96L241.39 96L241.39 95.46L242.36 95.25L242.36 90.17L241.39 89.97L241.39 89.44L243.36 89.36ZM242.79 88.01L242.79 88.01Q242.50 88.01 242.31 87.83Q242.13 87.64 242.13 87.31L242.13 87.31Q242.13 86.97 242.32 86.79Q242.51 86.61 242.80 86.61L242.80 86.61Q243.10 86.61 243.29 86.79Q243.47 86.96 243.47 87.31L243.47 87.31Q243.47 87.65 243.28 87.83Q243.07 88.01 242.79 88.01Z M248.29 92.66L248.29 92.66L247.35 92.66L247.35 95.24L248.72 95.46L248.72 96L245.25 96L245.25 95.46L246.32 95.24L246.32 88.06L245.25 87.88L245.25 87.34L247.38 87.28L248.79 87.28Q249.75 87.28 250.38 87.60Q251 87.92 251.31 88.50Q251.63 89.08 251.63 89.84L251.63 89.84Q251.63 90.67 251.25 91.31Q250.88 91.95 250.13 92.31Q249.39 92.66 248.29 92.66ZM248.64 88.04L248.64 88.04L247.35 88.04L247.35 91.90L248.29 91.90Q249.39 91.90 249.98 91.35Q250.57 90.80 250.57 89.86L250.57 89.86Q250.57 89.01 250.08 88.53Q249.59 88.04 248.64 88.04Z M252.27 98.92L252.27 98.92L252.36 98.19Q252.51 98.21 252.64 98.22Q252.77 98.24 252.89 98.24L252.89 98.24Q253.50 98.24 253.88 97.96Q254.26 97.67 254.52 97.11L254.52 97.11Q254.75 96.64 254.97 95.96L254.97 95.96L252.72 90.10L252.01 89.97L252.01 89.44L254.75 89.35L254.75 89.90L253.74 90.08L255.44 94.94L257.09 90.10L256.10 89.97L256.10 89.44L258.75 89.35L258.75 89.90L258.02 90.06L255.85 96.03Q255.62 96.65 255.38 97.19Q255.14 97.72 254.82 98.13Q254.51 98.54 254.06 98.76Q253.61 98.99 252.97 98.99L252.97 98.99Q252.69 98.99 252.27 98.92Z" fill="#1a4d68"/></g><g><rect x="279" y="80" width="114" height="24" rx="10" fill="#c9e3c9"/><rect x="283" y="81" width="22" height="22" rx="8" fill="rgba(255,255,255,0.65)"/><path d="M295.01 88.11L295.01 88.86L294.25 89.13L294.25 94.52L295.01 94.74L295.01 95.50L292.08 95.50L292.08 94.74L292.86 94.52L292.86 90.17L291.16 93.58L290.21 93.63L288.59 90.18L288.59 94.52L289.36 94.74L289.36 95.50L286.60 95.50L286.60 94.74L287.38 94.52L287.38 89.13L286.60 88.92L286.60 88.16L289.22 88.11L290.87 91.93L292.59 88.16L295.01 88.11Z M298.59 97.92L295.60 97.92L295.60 97.16L296.30 96.93L296.30 90.89L295.60 90.68L295.60 89.92L297.45 89.84L297.59 90.55Q298.01 90.20 298.42 90.00L298.42 90.00Q298.88 89.77 299.38 89.77L299.38 89.77Q299.99 89.77 300.45 90.09Q300.91 90.41 301.18 91.03Q301.45 91.66 301.45 92.56L301.45 92.56Q301.45 93.58 301.10 94.26Q300.76 94.94 300.13 95.28Q299.51 95.63 298.68 95.63L298.68 95.63Q298.43 95.63 298.15 95.58L298.15 95.58Q297.96 95.56 297.77 95.53L297.77 95.53L297.77 96.94L298.59 97.16L298.59 97.92ZM298.49 94.59L298.49 94.59Q299.23 94.59 299.58 94.08Q299.92 93.58 299.92 92.71L299.92 92.71Q299.92 92.13 299.78 91.71Q299.64 91.30 299.40 91.07Q299.16 90.85 298.80 90.85L298.80 90.85Q298.53 90.85 298.23 91.00L298.23 91.00Q298.01 91.10 297.77 91.29L297.77 91.29L297.77 94.49Q298.16 94.59 298.49 94.59Z" fill="#234725"/><path d="M322.54 87.28L322.54 87.81L321.45 88.06L321.45 95.24L322.54 95.46L322.54 96L319.43 96L319.43 95.46L320.50 95.24L320.50 88.72L317.82 93.72L317.14 93.78L314.54 88.69L314.54 95.24L315.63 95.46L315.63 96L312.61 96L312.61 95.46L313.69 95.24L313.69 88.06L312.61 87.88L312.61 87.34L314.95 87.28L317.59 92.61L320.31 87.34L322.54 87.28Z M328.75 91.15L328.75 95.25L329.74 95.44L329.74 95.99L327.99 96.06L327.85 94.97Q327.34 95.53 326.74 95.80L326.74 95.80Q326.10 96.11 325.50 96.11L325.50 96.11Q324.77 96.11 324.27 95.65Q323.77 95.19 323.77 94.25L323.77 94.25Q323.77 93.51 324.09 93.12Q324.40 92.72 324.95 92.56Q325.50 92.40 326.22 92.40L326.22 92.40L327.75 92.40L327.75 91.33Q327.75 90.64 327.39 90.34Q327.02 90.05 326.39 90.05L326.39 90.05Q326.05 90.05 325.68 90.11L325.68 90.11Q325.35 90.17 325 90.29L325 90.29L324.89 91.31L324.22 91.31L324.13 89.76Q324.84 89.53 325.46 89.41Q326.09 89.29 326.61 89.29L326.61 89.29Q327.61 89.29 328.18 89.73Q328.75 90.17 328.75 91.15L328.75 91.15ZM324.79 94.16L324.79 94.16Q324.79 94.78 325.08 95.06Q325.38 95.35 325.82 95.35L325.82 95.35Q326.26 95.35 326.80 95.08L326.80 95.08Q327.29 94.84 327.75 94.41L327.75 94.41L327.75 93.05L326.38 93.05Q325.49 93.05 325.14 93.32Q324.79 93.59 324.79 94.16Z M332.66 96.11L332.66 96.11Q332.01 96.11 331.64 95.71Q331.26 95.30 331.26 94.47L331.26 94.47L331.26 90.10L330.14 90.10L330.14 89.55L331.26 89.39L331.26 87.91L332.26 87.75L332.26 89.40L334.09 89.40L334.05 90.10L332.26 90.10L332.26 94.34Q332.26 94.86 332.47 95.10Q332.67 95.34 333.05 95.34L333.05 95.34Q333.27 95.34 333.54 95.26Q333.80 95.19 334.10 95.05L334.10 95.05L334.31 95.63Q333.42 96.11 332.66 96.11Z M337.96 98.88L334.84 98.88L334.84 98.34L335.81 98.11L335.81 90.17L334.84 89.97L334.84 89.44L336.59 89.35L336.70 90.28Q337.22 89.80 337.75 89.55L337.75 89.55Q338.32 89.29 338.89 89.29L338.89 89.29Q339.59 89.29 340.14 89.67Q340.70 90.06 341.02 90.79Q341.35 91.53 341.35 92.59L341.35 92.59Q341.35 93.74 340.96 94.53Q340.56 95.31 339.85 95.72Q339.14 96.13 338.17 96.13L338.17 96.13Q337.82 96.13 337.45 96.06L337.45 96.06Q337.15 96.01 336.81 95.94L336.81 95.94L336.81 98.11L337.96 98.34L337.96 98.88ZM338.06 95.38L338.06 95.38Q339.16 95.38 339.74 94.66Q340.31 93.95 340.31 92.69L340.31 92.69Q340.31 91.86 340.08 91.28Q339.85 90.69 339.45 90.37Q339.05 90.05 338.54 90.05L338.54 90.05Q338.10 90.05 337.64 90.28L337.64 90.28Q337.22 90.49 336.81 90.86L336.81 90.86L336.81 95.17Q337.50 95.38 338.06 95.38Z M344.25 86.35L344.25 95.25L345.24 95.46L345.24 96L342.27 96L342.27 95.46L343.25 95.25L343.25 87.17L342.27 86.97L342.27 86.44L344.25 86.35Z M349.22 89.29L349.22 89.29Q350.60 89.29 351.38 90.15Q352.16 91.01 352.16 92.59L352.16 92.59Q352.16 93.65 351.78 94.44Q351.40 95.24 350.70 95.67Q350.00 96.11 349.01 96.11L349.01 96.11Q347.66 96.11 346.90 95.27Q346.14 94.42 346.14 92.84L346.14 92.84Q346.14 91.74 346.51 90.94Q346.87 90.15 347.57 89.72Q348.26 89.29 349.22 89.29ZM349.17 90.03L349.17 90.03Q348.21 90.03 347.70 90.75Q347.19 91.47 347.19 92.79L347.19 92.79Q347.19 94.08 347.67 94.72Q348.16 95.38 349.07 95.38L349.07 95.38Q349.74 95.38 350.19 95.04Q350.65 94.71 350.88 94.10Q351.11 93.49 351.11 92.64L351.11 92.64Q351.11 91.36 350.61 90.69Q350.10 90.03 349.17 90.03Z M355.42 96.11L355.42 96.11Q354.77 96.11 354.40 95.71Q354.02 95.30 354.02 94.47L354.02 94.47L354.02 90.10L352.90 90.10L352.90 89.55L354.02 89.39L354.02 87.91L355.02 87.75L355.02 89.40L356.85 89.40L356.81 90.10L355.02 90.10L355.02 94.34Q355.02 94.86 355.23 95.10Q355.44 95.34 355.81 95.34L355.81 95.34Q356.04 95.34 356.30 95.26Q356.56 95.19 356.86 95.05L356.86 95.05L357.07 95.63Q356.19 96.11 355.42 96.11Z M359.56 86.35L359.56 95.25L360.55 95.46L360.55 96L357.59 96L357.59 95.46L358.56 95.25L358.56 87.17L357.59 86.97L357.59 86.44L359.56 86.35Z M363.31 89.36L363.31 95.25L364.29 95.46L364.29 96L361.34 96L361.34 95.46L362.31 95.25L362.31 90.17L361.34 89.97L361.34 89.44L363.31 89.36ZM362.74 88.01L362.74 88.01Q362.45 88.01 362.26 87.83Q362.07 87.64 362.07 87.31L362.07 87.31Q362.07 86.97 362.27 86.79Q362.46 86.61 362.75 86.61L362.75 86.61Q363.05 86.61 363.24 86.79Q363.42 86.96 363.42 87.31L363.42 87.31Q363.42 87.65 363.22 87.83Q363.02 88.01 362.74 88.01Z M367.71 96.11L367.71 96.11Q367.26 96.11 366.76 96.05Q366.25 95.99 365.69 95.86L365.69 95.86L365.69 87.19L364.71 86.97L364.71 86.44L366.69 86.35L366.69 90.19Q367.15 89.78 367.64 89.55L367.64 89.55Q368.20 89.29 368.76 89.29L368.76 89.29Q369.46 89.29 370.02 89.67Q370.57 90.06 370.90 90.80Q371.22 91.54 371.22 92.61L371.22 92.61Q371.22 93.42 371.02 94.08Q370.81 94.72 370.39 95.17Q369.96 95.63 369.30 95.87Q368.64 96.11 367.71 96.11ZM367.90 95.38L367.90 95.38Q369.01 95.38 369.60 94.69Q370.19 94 370.19 92.69L370.19 92.69Q370.19 91.86 369.96 91.28Q369.72 90.69 369.32 90.37Q368.92 90.05 368.41 90.05L368.41 90.05Q367.97 90.05 367.51 90.28L367.51 90.28Q367.10 90.49 366.69 90.86L366.69 90.86L366.69 95.21Q367.36 95.38 367.90 95.38Z" fill="#234725"/></g><g><rect x="16" y="112" width="87" height="24" rx="10" fill="#eed9f2"/><rect x="20" y="113" width="22" height="22" rx="8" fill="rgba(255,255,255,0.65)"/><path d="M29.35 124.89L29.35 124.89L28.83 124.89L28.83 126.52L29.82 126.74L29.82 127.50L26.55 127.50L26.55 126.74L27.33 126.51L27.33 121.12L26.55 120.92L26.55 120.16L28.86 120.11L29.81 120.11Q30.69 120.11 31.24 120.41Q31.80 120.71 32.07 121.22Q32.33 121.74 32.33 122.39L32.33 122.39Q32.33 123.09 32.01 123.66Q31.69 124.23 31.04 124.56Q30.38 124.89 29.35 124.89ZM29.57 121.18L29.57 121.18L28.83 121.18L28.83 123.80L29.36 123.80Q30.07 123.80 30.43 123.43Q30.80 123.05 30.80 122.42L30.80 122.42Q30.80 121.84 30.49 121.51Q30.18 121.18 29.57 121.18Z M34.95 119.33L34.95 126.54L35.64 126.74L35.64 127.50L32.77 127.50L32.77 126.74L33.48 126.54L33.48 120.37L32.77 120.17L32.77 119.41L34.95 119.33Z" fill="#5e4065"/><path d="M52.65 124.66L52.65 124.66L51.71 124.66L51.71 127.24L53.09 127.46L53.09 128L49.61 128L49.61 127.46L50.69 127.24L50.69 120.06L49.61 119.88L49.61 119.34L51.74 119.28L53.15 119.28Q54.11 119.28 54.74 119.60Q55.36 119.92 55.67 120.50Q55.99 121.08 55.99 121.84L55.99 121.84Q55.99 122.67 55.61 123.31Q55.24 123.95 54.49 124.31Q53.75 124.66 52.65 124.66ZM53 120.04L53 120.04L51.71 120.04L51.71 123.90L52.65 123.90Q53.75 123.90 54.34 123.35Q54.94 122.80 54.94 121.86L54.94 121.86Q54.94 121.01 54.44 120.53Q53.95 120.04 53 120.04Z M58.75 118.35L58.75 127.25L59.74 127.46L59.74 128L56.78 128L56.78 127.46L57.75 127.25L57.75 119.17L56.78 118.97L56.78 118.44L58.75 118.35Z M63.73 121.29L63.73 121.29Q65.10 121.29 65.88 122.15Q66.66 123.01 66.66 124.59L66.66 124.59Q66.66 125.65 66.28 126.44Q65.90 127.24 65.20 127.67Q64.50 128.11 63.51 128.11L63.51 128.11Q62.16 128.11 61.40 127.27Q60.64 126.42 60.64 124.84L60.64 124.84Q60.64 123.74 61.01 122.94Q61.38 122.15 62.07 121.72Q62.76 121.29 63.73 121.29ZM63.68 122.03L63.68 122.03Q62.71 122.03 62.20 122.75Q61.69 123.47 61.69 124.79L61.69 124.79Q61.69 126.08 62.18 126.72Q62.66 127.38 63.58 127.38L63.58 127.38Q64.24 127.38 64.69 127.04Q65.15 126.71 65.38 126.10Q65.61 125.49 65.61 124.64L65.61 124.64Q65.61 123.36 65.11 122.69Q64.60 122.03 63.68 122.03Z M69.93 128.11L69.93 128.11Q69.28 128.11 68.90 127.71Q68.53 127.30 68.53 126.47L68.53 126.47L68.53 122.10L67.40 122.10L67.40 121.55L68.53 121.39L68.53 119.91L69.53 119.75L69.53 121.40L71.35 121.40L71.31 122.10L69.53 122.10L69.53 126.34Q69.53 126.86 69.73 127.10Q69.94 127.34 70.31 127.34L70.31 127.34Q70.54 127.34 70.80 127.26Q71.06 127.19 71.36 127.05L71.36 127.05L71.58 127.63Q70.69 128.11 69.93 128.11Z M74.06 118.35L74.06 127.25L75.05 127.46L75.05 128L72.09 128L72.09 127.46L73.06 127.25L73.06 119.17L72.09 118.97L72.09 118.44L74.06 118.35Z M75.55 130.93L75.55 130.93L75.64 130.19Q75.79 130.21 75.92 130.22Q76.05 130.24 76.16 130.24L76.16 130.24Q76.78 130.24 77.16 129.96Q77.54 129.68 77.80 129.11L77.80 129.11Q78.03 128.64 78.25 127.96L78.25 127.96L76.00 122.10L75.29 121.97L75.29 121.44L78.03 121.35L78.03 121.90L77.01 122.08L78.71 126.94L80.36 122.10L79.38 121.97L79.38 121.44L82.03 121.35L82.03 121.90L81.30 122.06L79.13 128.03Q78.90 128.65 78.66 129.19Q78.41 129.72 78.10 130.13Q77.79 130.54 77.34 130.76Q76.89 130.99 76.25 130.99L76.25 130.99Q75.96 130.99 75.55 130.93Z" fill="#5e4065"/></g><g><rect x="109" y="112" width="87" height="24" rx="10" fill="#c9e3c9"/><rect x="113" y="113" width="22" height="22" rx="8" fill="rgba(255,255,255,0.65)"/><path d="M126.58 120.11L126.58 120.86L125.81 121.13L125.81 126.52L126.58 126.74L126.58 127.50L123.65 127.50L123.65 126.74L124.43 126.52L124.43 122.17L122.72 125.58L121.78 125.63L120.15 122.18L120.15 126.52L120.93 126.74L120.93 127.50L118.17 127.50L118.17 126.74L118.94 126.52L118.94 121.13L118.17 120.92L118.17 120.16L120.78 120.11L122.43 123.93L124.15 120.16L126.58 120.11Z M129.33 119.33L129.33 126.54L130.02 126.74L130.02 127.50L127.16 127.50L127.16 126.74L127.86 126.54L127.86 120.37L127.16 120.17L127.16 119.41L129.33 119.33Z" fill="#234725"/><path d="M152.54 119.28L152.54 119.81L151.45 120.06L151.45 127.24L152.54 127.46L152.54 128L149.43 128L149.43 127.46L150.50 127.24L150.50 120.72L147.82 125.72L147.14 125.78L144.54 120.69L144.54 127.24L145.63 127.46L145.63 128L142.61 128L142.61 127.46L143.69 127.24L143.69 120.06L142.61 119.88L142.61 119.34L144.95 119.28L147.59 124.61L150.31 119.34L152.54 119.28Z M158.88 127.24L159.09 125.78L159.71 125.78L159.71 128L153.75 128L153.75 127.46L154.82 127.24L154.82 120.08L153.75 119.88L153.75 119.34L157.07 119.28L157.07 119.81L155.85 120.08L155.85 127.24L158.88 127.24Z M163.70 128L160.54 128L160.54 127.46L161.51 127.25L161.51 122.15L160.51 122.15L160.51 121.60L161.51 121.46L161.51 120.58Q161.51 119.40 162.12 118.84Q162.72 118.29 163.71 118.29L163.71 118.29Q164.04 118.29 164.37 118.34Q164.71 118.40 165.09 118.53L165.09 118.53L164.92 119.21Q164.64 119.13 164.37 119.08Q164.11 119.03 163.86 119.03L163.86 119.03Q163.25 119.03 162.88 119.38Q162.51 119.72 162.51 120.49L162.51 120.49L162.51 121.45L164.26 121.45L164.24 122.15L162.51 122.15L162.51 127.25L163.70 127.46L163.70 128Z M166.70 118.35L166.70 127.25L167.69 127.46L167.69 128L164.72 128L164.72 127.46L165.70 127.25L165.70 119.17L164.72 118.97L164.72 118.44L166.70 118.35Z M171.67 121.29L171.67 121.29Q173.05 121.29 173.83 122.15Q174.61 123.01 174.61 124.59L174.61 124.59Q174.61 125.65 174.23 126.44Q173.85 127.24 173.15 127.67Q172.45 128.11 171.46 128.11L171.46 128.11Q170.11 128.11 169.35 127.27Q168.59 126.42 168.59 124.84L168.59 124.84Q168.59 123.74 168.96 122.94Q169.32 122.15 170.02 121.72Q170.71 121.29 171.67 121.29ZM171.62 122.03L171.62 122.03Q170.66 122.03 170.15 122.75Q169.64 123.47 169.64 124.79L169.64 124.79Q169.64 126.08 170.12 126.72Q170.61 127.38 171.52 127.38L171.52 127.38Q172.19 127.38 172.64 127.04Q173.10 126.71 173.33 126.10Q173.56 125.49 173.56 124.64L173.56 124.64Q173.56 123.36 173.06 122.69Q172.55 122.03 171.62 122.03Z M182.72 121.97L182.72 121.44L185.24 121.35L185.24 121.90L184.50 122.08L182.82 128.03L181.72 128.03L180.20 122.47L178.57 128.03L177.47 128.03L175.87 122.11L175.12 121.97L175.12 121.44L177.82 121.35L177.82 121.90L176.82 122.08L178.11 127.11L179.70 121.42L180.79 121.35L182.32 127.15L183.67 122.11L182.72 121.97Z" fill="#234725"/></g></svg>