<svg xmlns="http://www.w3.org/2000/svg" width="480" height="152" viewBox="0 0 480 152" role="img"><rect x="0.5" y="0.5" width="479" height="151" rx="16" fill="#fdfcf6" stroke="#d6d9ce"/><rect x="16" y="16" width="22" height="22" rx="8" fill="#d6d9ce"/><path d="M27 21.88 L28.61 25.31 L32.04 26.92 L28.61 28.53 L27 31.96 L25.39 28.53 L21.96 26.92 L25.39 25.31 Z" fill="#42774e"/><path d="M51.73 30.84L51.98 29.39L52.93 29.39L52.93 32L46.52 32L46.52 31.19L47.53 30.93L47.53 23.98L46.52 23.74L46.52 22.94L50.25 22.87L50.25 23.68L49.13 23.98L49.13 30.84L51.73 30.84Z M59.35 27.01L59.35 30.93L60.27 31.18L60.27 31.99L58.14 32.09L57.96 30.97Q57.45 31.55 56.88 31.83L56.88 31.83Q56.24 32.14 55.62 32.14L55.62 32.14Q54.83 32.14 54.28 31.63Q53.73 31.12 53.73 30.13L53.73 30.13Q53.73 29.37 54.06 28.95Q54.39 28.52 54.98 28.33Q55.57 28.14 56.41 28.14L56.41 28.14L57.79 28.14L57.79 27.29Q57.79 26.66 57.47 26.38Q57.14 26.10 56.54 26.10L56.54 26.10Q56.24 26.10 55.92 26.15L55.92 26.15Q55.65 26.20 55.35 26.29L55.35 26.29L55.22 27.25L54.22 27.25L54.11 25.43Q54.96 25.19 55.66 25.06Q56.36 24.94 56.96 24.94L56.96 24.94Q58.10 24.94 58.73 25.44Q59.35 25.94 59.35 27.01L59.35 27.01ZM55.31 29.98L55.31 29.98Q55.31 30.50 55.55 30.75Q55.80 31.00 56.19 31.00L56.19 31.00Q56.57 31.00 57.01 30.77L57.01 30.77Q57.41 30.56 57.79 30.22L57.79 30.22L57.79 29.04L56.66 29.04Q55.89 29.04 55.60 29.27Q55.31 29.50 55.31 29.98Z M64.20 32L60.87 32L60.87 31.19L61.80 30.95L61.80 26.18L60.87 25.93L60.87 25.12L63.00 25.02L63.17 26.03Q63.73 25.51 64.34 25.24L64.34 25.24Q65.05 24.94 65.68 24.94L65.68 24.94Q66.55 24.94 67.13 25.49Q67.71 26.03 67.70 27.14L67.70 27.14L67.70 30.93L68.62 31.19L68.62 32L65.29 32L65.29 31.19L66.14 30.97L66.14 27.48Q66.14 26.79 65.83 26.46Q65.53 26.14 65.02 26.14L65.02 26.14Q64.63 26.14 64.16 26.34L64.16 26.34Q63.76 26.54 63.36 26.90L63.36 26.90L63.36 30.96L64.20 31.19L64.20 32Z M72.17 35.13L72.17 35.13Q70.58 35.13 69.80 34.70Q69.02 34.26 69.02 33.43L69.02 33.43Q69.02 32.81 69.45 32.35L69.45 32.35Q69.74 32.06 70.21 31.83L70.21 31.83Q70.06 31.78 69.96 31.69L69.96 31.69Q69.67 31.49 69.67 31.16L69.67 31.16Q69.67 31.05 69.71 30.93Q69.74 30.80 69.84 30.60Q69.93 30.40 70.10 30.09L70.10 30.09Q70.22 29.86 70.41 29.52L70.41 29.52Q69.89 29.23 69.61 28.74L69.61 28.74Q69.28 28.20 69.28 27.48L69.28 27.48Q69.28 26.29 70.08 25.62Q70.88 24.94 72.30 24.94L72.30 24.94Q73.18 24.94 73.83 25.20L73.83 25.20L75.76 25.12L75.77 26.01L74.90 26.18Q75.04 26.36 75.12 26.59L75.12 26.59Q75.24 26.93 75.24 27.37L75.24 27.37Q75.24 28.55 74.42 29.24Q73.60 29.92 72.23 29.92L72.23 29.92Q71.68 29.92 71.17 29.79L71.17 29.79L70.97 30.92L73.26 30.92Q74.55 30.92 75.22 31.42Q75.89 31.92 75.89 32.87L75.89 32.87Q75.89 33.96 74.96 34.55Q74.03 35.13 72.17 35.13ZM72.22 28.85L72.22 28.85Q72.92 28.85 73.31 28.48Q73.69 28.11 73.69 27.40Q73.69 26.68 73.33 26.34Q72.98 25.99 72.29 25.99L72.29 25.99Q71.58 25.99 71.22 26.36Q70.86 26.72 70.86 27.42Q70.86 28.13 71.20 28.49Q71.55 28.85 72.22 28.85ZM72.30 34.00L72.30 34.00Q73.39 34.00 73.89 33.76Q74.39 33.51 74.39 33.00L74.39 33.00Q74.39 32.55 74.04 32.32Q73.69 32.09 73.01 32.09L73.01 32.09L71.06 32.09Q70.39 32.57 70.39 33.13L70.39 33.13Q70.39 33.57 70.85 33.79Q71.31 34.00 72.30 34.00Z M79.27 32.14L79.27 32.14Q78.41 32.14 77.83 31.59Q77.25 31.04 77.25 29.91L77.25 29.91L77.25 26.19L76.33 25.93L76.33 25.12L78.81 25.03L78.81 29.65Q78.81 30.31 79.12 30.63Q79.42 30.95 79.93 30.95L79.93 30.95Q80.32 30.95 80.79 30.74L80.79 30.74Q81.20 30.56 81.61 30.18L81.61 30.18L81.61 26.19L80.68 25.93L80.68 25.12L83.17 25.03L83.17 30.93L84.08 31.18L84.08 31.99L81.95 32.08L81.78 31.04Q81.22 31.56 80.61 31.83L80.61 31.83Q79.90 32.14 79.27 32.14Z M90.46 27.01L90.46 30.93L91.38 31.18L91.38 31.99L89.25 32.09L89.07 30.97Q88.56 31.55 87.99 31.83L87.99 31.83Q87.35 32.14 86.73 32.14L86.73 32.14Q85.94 32.14 85.39 31.63Q84.84 31.12 84.84 30.13L84.84 30.13Q84.84 29.37 85.17 28.95Q85.49 28.52 86.09 28.33Q86.68 28.14 87.52 28.14L87.52 28.14L88.90 28.14L88.90 27.29Q88.90 26.66 88.58 26.38Q88.25 26.10 87.65 26.10L87.65 26.10Q87.35 26.10 87.03 26.15L87.03 26.15Q86.76 26.20 86.46 26.29L86.46 26.29L86.33 27.25L85.33 27.25L85.22 25.43Q86.07 25.19 86.77 25.06Q87.47 24.94 88.07 24.94L88.07 24.94Q89.21 24.94 89.84 25.44Q90.46 25.94 90.46 27.01L90.46 27.01ZM86.42 29.98L86.42 29.98Q86.42 30.50 86.66 30.75Q86.91 31.00 87.30 31.00L87.30 31.00Q87.68 31.00 88.12 30.77L88.12 30.77Q88.52 30.56 88.90 30.22L88.90 30.22L88.90 29.04L87.77 29.04Q87.00 29.04 86.71 29.27Q86.42 29.50 86.42 29.98Z M94.96 35.13L94.96 35.13Q93.37 35.13 92.59 34.70Q91.81 34.26 91.81 33.43L91.81 33.43Q91.81 32.81 92.24 32.35L92.24 32.35Q92.53 32.06 93.00 31.83L93.00 31.83Q92.85 31.78 92.75 31.69L92.75 31.69Q92.46 31.49 92.46 31.16L92.46 31.16Q92.46 31.05 92.49 30.93Q92.53 30.80 92.62 30.60Q92.72 30.40 92.89 30.09L92.89 30.09Q93.01 29.86 93.20 29.52L93.20 29.52Q92.68 29.23 92.40 28.74L92.40 28.74Q92.07 28.20 92.07 27.48L92.07 27.48Q92.07 26.29 92.87 25.62Q93.67 24.94 95.09 24.94L95.09 24.94Q95.97 24.94 96.62 25.20L96.62 25.20L98.55 25.12L98.56 26.01L97.69 26.18Q97.83 26.36 97.91 26.59L97.91 26.59Q98.03 26.93 98.03 27.37L98.03 27.37Q98.03 28.55 97.21 29.24Q96.39 29.92 95.02 29.92L95.02 29.92Q94.46 29.92 93.96 29.79L93.96 29.79L93.76 30.92L96.05 30.92Q97.34 30.92 98.01 31.42Q98.68 31.92 98.68 32.87L98.68 32.87Q98.68 33.96 97.75 34.55Q96.82 35.13 94.96 35.13ZM95.01 28.85L95.01 28.85Q95.71 28.85 96.10 28.48Q96.48 28.11 96.48 27.40Q96.48 26.68 96.12 26.34Q95.76 25.99 95.08 25.99L95.08 25.99Q94.37 25.99 94.01 26.36Q93.65 26.72 93.65 27.42Q93.65 28.13 93.99 28.49Q94.33 28.85 95.01 28.85ZM95.09 34.00L95.09 34.00Q96.18 34.00 96.68 33.76Q97.18 33.51 97.18 33.00L97.18 33.00Q97.18 32.55 96.83 32.32Q96.48 32.09 95.80 32.09L95.80 32.09L93.85 32.09Q93.18 32.57 93.18 33.13L93.18 33.13Q93.18 33.57 93.64 33.79Q94.10 34.00 95.09 34.00Z M102.54 32.14L102.54 32.14Q101.63 32.14 100.93 31.75Q100.22 31.35 99.83 30.57Q99.44 29.79 99.44 28.66L99.44 28.66Q99.44 27.50 99.85 26.67Q100.26 25.84 101.01 25.39Q101.76 24.94 102.78 24.94L102.78 24.94Q103.76 24.94 104.38 25.34Q104.99 25.73 105.29 26.42Q105.59 27.11 105.59 27.98L105.59 27.98Q105.59 28.18 105.58 28.37Q105.57 28.57 105.53 28.80L105.53 28.80L101.07 28.80Q101.11 29.34 101.25 29.75L101.25 29.75Q101.45 30.32 101.86 30.65Q102.28 30.97 102.91 30.97L102.91 30.97Q103.37 30.97 103.90 30.80Q104.44 30.63 105.01 30.28L105.01 30.28L105.54 31.13Q104.80 31.64 104.03 31.89Q103.27 32.14 102.54 32.14ZM101.09 27.81L101.09 27.81L103.98 27.81Q103.98 27.36 103.88 26.99L103.88 26.99Q103.75 26.58 103.45 26.33Q103.15 26.09 102.65 26.09L102.65 26.09Q102.10 26.09 101.74 26.40Q101.38 26.71 101.22 27.24L101.22 27.24Q101.13 27.52 101.09 27.81Z M108.27 26.80L108.27 26.80Q108.27 27.14 108.53 27.34Q108.79 27.54 109.20 27.68Q109.61 27.81 110.08 27.96Q110.55 28.10 110.95 28.32Q111.36 28.54 111.62 28.92Q111.88 29.30 111.88 29.89L111.88 29.89Q111.88 30.62 111.49 31.12Q111.09 31.62 110.41 31.88Q109.73 32.14 108.87 32.14L108.87 32.14Q108.37 32.14 107.82 32.06Q107.27 31.97 106.68 31.82L106.68 31.82L106.76 29.92L107.75 29.92L107.88 30.96Q108.10 31.01 108.35 31.04L108.35 31.04Q108.66 31.09 108.91 31.09L108.91 31.09Q109.27 31.09 109.59 30.99Q109.91 30.88 110.12 30.67Q110.32 30.47 110.32 30.15L110.32 30.15Q110.32 29.80 110.06 29.60Q109.80 29.40 109.39 29.26Q108.99 29.11 108.53 28.97Q108.08 28.83 107.67 28.60Q107.26 28.37 107.00 28.00Q106.74 27.62 106.74 27.01L106.74 27.01Q106.74 26.28 107.10 25.82Q107.46 25.37 108.07 25.16Q108.67 24.94 109.38 24.94L109.38 24.94Q109.87 24.94 110.44 25.04Q111.01 25.14 111.62 25.32L111.62 25.32L111.56 26.97L110.56 26.97L110.39 26.12Q109.86 25.99 109.44 25.99L109.44 25.99Q108.92 25.99 108.60 26.21Q108.27 26.44 108.27 26.80Z" fill="#262b21"/><g><rect x="16" y="48" width="66" height="24" rx="10" fill="#c4e8fa"/><rect x="20" y="49" width="22" height="22" rx="8" fill="rgba(255,255,255,0.65)"/><path d="M28.40 63.63L28.40 63.63Q27.54 63.63 26.82 63.20Q26.11 62.78 25.68 61.93Q25.25 61.09 25.25 59.85L25.25 59.85Q25.25 58.63 25.67 57.77Q26.09 56.91 26.85 56.44Q27.62 55.98 28.65 55.98L28.65 55.98Q29.19 55.98 29.77 56.12Q30.35 56.26 31.01 56.53L31.01 56.53L30.92 58.42L30.02 58.42L29.80 57.35Q29.55 57.26 29.32 57.21L29.32 57.21Q28.98 57.14 28.70 57.14L28.70 57.14Q28.10 57.14 27.69 57.44Q27.28 57.74 27.07 58.30Q26.86 58.87 26.86 59.66L26.86 59.66Q26.86 60.58 27.11 61.20Q27.36 61.81 27.79 62.11Q28.23 62.41 28.77 62.41L28.77 62.41Q29.18 62.41 29.64 62.23Q30.10 62.06 30.56 61.70L30.56 61.70L31.12 62.58Q30.46 63.10 29.77 63.36Q29.07 63.63 28.40 63.63Z M31.82 59.30L33.76 59.30L33.76 57.27L34.87 57.27L34.87 59.30L36.82 59.30L36.82 60.35L34.87 60.35L34.87 62.38L33.76 62.38L33.76 60.35L31.82 60.35L31.82 59.30Z" fill="#1a4d68"/><path d="M53.38 64.11L53.38 64.11Q52.38 64.11 51.55 63.60Q50.73 63.09 50.24 62.10Q49.76 61.11 49.76 59.67L49.76 59.67Q49.76 58.26 50.25 57.25Q50.74 56.24 51.61 55.70Q52.49 55.16 53.65 55.16L53.65 55.16Q54.27 55.16 54.95 55.31Q55.63 55.46 56.35 55.79L56.35 55.79L56.26 57.75L55.65 57.75L55.45 56.34Q55.02 56.17 54.61 56.08L54.61 56.08Q54.10 55.98 53.66 55.98L53.66 55.98Q52.80 55.98 52.17 56.41Q51.55 56.84 51.21 57.64Q50.86 58.44 50.86 59.55L50.86 59.55Q50.86 60.75 51.23 61.58Q51.59 62.40 52.22 62.83Q52.85 63.26 53.64 63.26L53.64 63.26Q54.21 63.26 54.84 63.01Q55.48 62.76 56.06 62.25L56.06 62.25L56.48 62.86Q55.74 63.50 54.94 63.81Q54.14 64.11 53.38 64.11Z M57.73 59.26L60.25 59.26L60.25 56.65L61.04 56.65L61.04 59.26L63.56 59.26L63.56 60L61.04 60L61.04 62.61L60.25 62.61L60.25 60L57.73 60L57.73 59.26Z M64.86 59.26L67.39 59.26L67.39 56.65L68.18 56.65L68.18 59.26L70.70 59.26L70.70 60L68.18 60L68.18 62.61L67.39 62.61L67.39 60L64.86 60L64.86 59.26Z" fill="#1a4d68"/></g><g><rect x="88" y="48" width="87" height="24" rx="10" fill="#f7ecbe"/><rect x="92" y="49" width="22" height="22" rx="8" fill="rgba(255,255,255,0.65)"/><path d="M100.06 60.89L100.06 60.89L99.53 60.89L99.53 62.52L100.53 62.74L100.53 63.50L97.26 63.50L97.26 62.74L98.03 62.51L98.03 57.12L97.26 56.92L97.26 56.16L99.57 56.11L100.52 56.11Q101.39 56.11 101.95 56.41Q102.51 56.71 102.77 57.22Q103.04 57.74 103.04 58.39L103.04 58.39Q103.04 59.09 102.72 59.66Q102.40 60.23 101.75 60.56Q101.09 60.89 100.06 60.89ZM100.28 57.18L100.28 57.18L99.53 57.18L99.53 59.80L100.07 59.80Q100.77 59.80 101.14 59.43Q101.51 59.05 101.51 58.42L101.51 58.42Q101.51 57.84 101.20 57.51Q100.89 57.18 100.28 57.18Z M103.37 65.97L103.37 65.97L103.50 64.93Q103.67 64.95 103.81 64.96Q103.96 64.97 104.08 64.97L104.08 64.97Q104.54 64.97 104.83 64.79Q105.12 64.60 105.34 64.21L105.34 64.21Q105.49 63.94 105.65 63.55L105.65 63.55L103.73 58.82L103.22 58.69L103.22 57.94L105.84 57.85L105.84 58.60L105.20 58.76L106.31 62.01L107.29 58.82L106.69 58.69L106.69 57.94L109.16 57.85L109.16 58.60L108.68 58.75L106.97 63.48Q106.75 64.09 106.50 64.56Q106.24 65.03 105.92 65.36Q105.60 65.69 105.18 65.87Q104.75 66.04 104.19 66.04L104.19 66.04Q103.82 66.04 103.37 65.97Z" fill="#553d1a"/><path d="M124.65 60.66L124.65 60.66L123.71 60.66L123.71 63.24L125.09 63.46L125.09 64L121.61 64L121.61 63.46L122.69 63.24L122.69 56.06L121.61 55.88L121.61 55.34L123.74 55.27L125.15 55.27Q126.11 55.27 126.74 55.60Q127.36 55.92 127.67 56.50Q127.99 57.08 127.99 57.84L127.99 57.84Q127.99 58.67 127.61 59.31Q127.24 59.95 126.49 60.31Q125.75 60.66 124.65 60.66ZM125 56.04L125 56.04L123.71 56.04L123.71 59.90L124.65 59.90Q125.75 59.90 126.34 59.35Q126.94 58.80 126.94 57.86L126.94 57.86Q126.94 57.01 126.44 56.52Q125.95 56.04 125 56.04Z M128.64 66.92L128.64 66.92L128.72 66.19Q128.88 66.21 129.01 66.22Q129.14 66.24 129.25 66.24L129.25 66.24Q129.86 66.24 130.24 65.96Q130.63 65.67 130.89 65.11L130.89 65.11Q131.11 64.64 131.34 63.96L131.34 63.96L129.09 58.10L128.38 57.98L128.38 57.44L131.11 57.35L131.11 57.90L130.10 58.08L131.80 62.94L133.45 58.10L132.46 57.98L132.46 57.44L135.11 57.35L135.11 57.90L134.39 58.06L132.21 64.03Q131.99 64.65 131.74 65.19Q131.50 65.72 131.19 66.13Q130.88 66.54 130.42 66.76Q129.97 66.99 129.34 66.99L129.34 66.99Q129.05 66.99 128.64 66.92Z M137.75 64.11L137.75 64.11Q137.10 64.11 136.72 63.71Q136.35 63.30 136.35 62.48L136.35 62.48L136.35 58.10L135.22 58.10L135.22 57.55L136.35 57.39L136.35 55.91L137.35 55.75L137.35 57.40L139.18 57.40L139.14 58.10L137.35 58.10L137.35 62.34Q137.35 62.86 137.56 63.10Q137.76 63.34 138.14 63.34L138.14 63.34Q138.36 63.34 138.63 63.26Q138.89 63.19 139.19 63.05L139.19 63.05L139.40 63.63Q138.51 64.11 137.75 64.11Z M142.83 64L139.91 64L139.91 63.46L140.89 63.25L140.89 55.19L139.91 54.98L139.91 54.44L141.89 54.35L141.89 58.31Q142.40 57.84 142.97 57.59L142.97 57.59Q143.65 57.29 144.26 57.29L144.26 57.29Q144.81 57.29 145.25 57.51Q145.69 57.74 145.93 58.19Q146.18 58.65 146.16 59.35L146.16 59.35L146.16 63.25L147.15 63.46L147.15 64L144.22 64L144.22 63.46L145.16 63.26L145.16 59.58Q145.19 58.80 144.83 58.44Q144.46 58.08 143.88 58.08L143.88 58.08Q143.41 58.08 142.88 58.33L142.88 58.33Q142.38 58.55 141.89 59.02L141.89 59.02L141.89 63.26L142.83 63.46L142.83 64Z M151.04 57.29L151.04 57.29Q152.41 57.29 153.19 58.15Q153.98 59.01 153.98 60.59L153.98 60.59Q153.98 61.65 153.59 62.44Q153.21 63.24 152.51 63.67Q151.81 64.11 150.83 64.11L150.83 64.11Q149.48 64.11 148.71 63.27Q147.95 62.42 147.95 60.84L147.95 60.84Q147.95 59.74 148.32 58.94Q148.69 58.15 149.38 57.72Q150.08 57.29 151.04 57.29ZM150.99 58.02L150.99 58.02Q150.03 58.02 149.51 58.75Q149 59.48 149 60.79L149 60.79Q149 62.08 149.49 62.73Q149.98 63.38 150.89 63.38L150.89 63.38Q151.55 63.38 152.01 63.04Q152.46 62.71 152.69 62.10Q152.93 61.49 152.93 60.64L152.93 60.64Q152.93 59.36 152.42 58.69Q151.91 58.02 150.99 58.02Z M157.94 64L155.03 64L155.03 63.46L156 63.25L156 58.17L155.03 57.98L155.03 57.44L156.78 57.35L156.89 58.41Q157.46 57.86 158.09 57.59L158.09 57.59Q158.76 57.29 159.38 57.29L159.38 57.29Q160.20 57.29 160.74 57.79Q161.29 58.30 161.28 59.36L161.28 59.36L161.28 63.25L162.25 63.46L162.25 64L159.34 64L159.34 63.46L160.28 63.26L160.28 59.58Q160.28 58.80 159.93 58.44Q159.58 58.08 158.99 58.08L158.99 58.08Q158.53 58.08 157.99 58.33L157.99 58.33Q157.49 58.55 157 59.01L157 59.01L157 63.26L157.94 63.46L157.94 64Z" fill="#553d1a"/></g><g><rect x="181" y="48" width="114" height="24" rx="10" fill="#c4e8fa"/><rect x="185" y="49" width="22" height="22" rx="8" fill="rgba(255,255,255,0.65)"/><path d="M195.06 63.50L191.76 63.50L191.76 62.74L192.66 62.52L192.66 57.19L191.52 57.19L191.30 58.23L190.41 58.23L190.41 56.11L196.41 56.11L196.41 58.23L195.52 58.23L195.31 57.19L194.17 57.19L194.17 62.51L195.06 62.74L195.06 63.50Z M198.55 59.31L198.55 59.31Q198.55 59.55 198.76 59.70Q198.97 59.85 199.30 59.95Q199.63 60.06 200.00 60.17Q200.37 60.29 200.70 60.47Q201.03 60.65 201.24 60.96Q201.45 61.26 201.45 61.75L201.45 61.75Q201.45 62.37 201.12 62.79Q200.78 63.21 200.21 63.42Q199.63 63.63 198.90 63.63L198.90 63.63Q198.48 63.63 198.02 63.55Q197.55 63.48 197.06 63.35L197.06 63.35L197.12 61.77L198.04 61.77L198.14 62.54Q198.30 62.59 198.49 62.61L198.49 62.61Q198.75 62.65 198.93 62.65L198.93 62.65Q199.21 62.65 199.44 62.58Q199.68 62.50 199.83 62.36Q199.98 62.22 199.98 62.00L199.98 62.00Q199.98 61.75 199.77 61.60Q199.56 61.45 199.23 61.35Q198.90 61.24 198.54 61.13Q198.18 61.01 197.85 60.82Q197.52 60.63 197.31 60.32Q197.10 60.00 197.10 59.50L197.10 59.50Q197.10 58.89 197.40 58.51Q197.71 58.12 198.22 57.95Q198.72 57.77 199.33 57.77L199.33 57.77Q199.76 57.77 200.25 57.85Q200.73 57.92 201.23 58.07L201.23 58.07L201.18 59.48L200.25 59.48L200.11 58.83Q199.72 58.73 199.41 58.73L199.41 58.73Q199.02 58.73 198.78 58.89Q198.55 59.04 198.55 59.31Z" fill="#1a4d68"/><path d="M219.41 64L215.90 64L215.90 63.46L217.15 63.24L217.15 56.04L215.18 56.04L214.96 57.41L214.34 57.41L214.34 55.27L220.97 55.27L220.97 57.41L220.35 57.41L220.13 56.04L218.16 56.04L218.16 63.24L219.41 63.46L219.41 64Z M221.50 66.92L221.50 66.92L221.59 66.19Q221.74 66.21 221.87 66.22Q222 66.24 222.11 66.24L222.11 66.24Q222.72 66.24 223.11 65.96Q223.49 65.67 223.75 65.11L223.75 65.11Q223.97 64.64 224.20 63.96L224.20 63.96L221.95 58.10L221.24 57.98L221.24 57.44L223.97 57.35L223.97 57.90L222.96 58.08L224.66 62.94L226.31 58.10L225.32 57.98L225.32 57.44L227.97 57.35L227.97 57.90L227.25 58.06L225.07 64.03Q224.85 64.65 224.61 65.19Q224.36 65.72 224.05 66.13Q223.74 66.54 223.29 66.76Q222.84 66.99 222.20 66.99L222.20 66.99Q221.91 66.99 221.50 66.92Z M231.39 66.88L228.26 66.88L228.26 66.34L229.24 66.11L229.24 58.17L228.26 57.98L228.26 57.44L230.01 57.35L230.13 58.27Q230.65 57.80 231.18 57.55L231.18 57.55Q231.75 57.29 232.31 57.29L232.31 57.29Q233.01 57.29 233.57 57.67Q234.13 58.06 234.45 58.79Q234.78 59.52 234.78 60.59L234.78 60.59Q234.78 61.74 234.38 62.52Q233.99 63.31 233.28 63.72Q232.56 64.13 231.60 64.13L231.60 64.13Q231.25 64.13 230.88 64.06L230.88 64.06Q230.58 64.01 230.24 63.94L230.24 63.94L230.24 66.11L231.39 66.34L231.39 66.88ZM231.49 63.38L231.49 63.38Q232.59 63.38 233.16 62.66Q233.74 61.95 233.74 60.69L233.74 60.69Q233.74 59.86 233.51 59.27Q233.28 58.69 232.88 58.37Q232.48 58.05 231.96 58.05L231.96 58.05Q231.53 58.05 231.06 58.27L231.06 58.27Q230.65 58.49 230.24 58.86L230.24 58.86L230.24 63.17Q230.93 63.38 231.49 63.38Z M238.82 64.11L238.82 64.11Q237.99 64.11 237.34 63.73Q236.70 63.35 236.34 62.61Q235.97 61.88 235.97 60.81L235.97 60.81Q235.97 59.73 236.35 58.94Q236.72 58.15 237.41 57.72Q238.10 57.29 239.03 57.29L239.03 57.29Q239.90 57.29 240.47 57.66Q241.04 58.02 241.32 58.67Q241.60 59.33 241.60 60.16L241.60 60.16Q241.60 60.30 241.59 60.44Q241.57 60.58 241.55 60.77L241.55 60.77L237.01 60.77Q237.03 61.54 237.25 62.09L237.25 62.09Q237.49 62.69 237.94 63.01Q238.40 63.34 239.06 63.34L239.06 63.34Q239.53 63.34 240.07 63.16Q240.63 62.98 241.21 62.60L241.21 62.60L241.57 63.16Q240.88 63.64 240.18 63.88Q239.47 64.11 238.82 64.11ZM237.05 60.06L237.05 60.06L240.56 60.06Q240.56 59.54 240.43 59.10L240.43 59.10Q240.28 58.63 239.91 58.34Q239.55 58.05 238.95 58.05L238.95 58.05Q238.31 58.05 237.88 58.39Q237.44 58.73 237.22 59.31L237.22 59.31Q237.10 59.65 237.05 60.06Z M244.20 57.40L244.20 57.40Q244.20 57.88 244.45 58.17Q244.70 58.48 245.12 58.67Q245.54 58.86 246.04 59.01Q246.54 59.16 247.04 59.34Q247.54 59.52 247.95 59.79Q248.36 60.06 248.62 60.49Q248.88 60.92 248.88 61.58L248.88 61.58Q248.88 62.45 248.43 63.01Q247.99 63.58 247.25 63.84Q246.51 64.11 245.64 64.11L245.64 64.11Q245.01 64.11 244.36 63.98Q243.71 63.85 243.09 63.59L243.09 63.59L243.16 61.54L243.78 61.54L243.96 62.98Q244.35 63.14 244.78 63.23L244.78 63.23Q245.25 63.33 245.70 63.33L245.70 63.33Q246.29 63.33 246.78 63.14Q247.26 62.96 247.56 62.61Q247.86 62.25 247.86 61.71L247.86 61.71Q247.86 61.21 247.61 60.91Q247.35 60.60 246.94 60.40Q246.53 60.20 246.03 60.05Q245.53 59.90 245.03 59.73Q244.53 59.56 244.11 59.30Q243.70 59.04 243.44 58.62Q243.19 58.20 243.19 57.55L243.19 57.55Q243.19 56.75 243.58 56.22Q243.97 55.69 244.66 55.42Q245.34 55.16 246.18 55.16L246.18 55.16Q246.76 55.16 247.40 55.29Q248.04 55.41 248.65 55.67L248.65 55.67L248.55 57.64L247.93 57.64L247.75 56.23Q247.44 56.11 247.08 56.04L247.08 56.04Q246.64 55.95 246.20 55.95L246.20 55.95Q245.69 55.95 245.22 56.09Q244.76 56.24 244.48 56.56Q244.20 56.88 244.20 57.40Z M253.11 64.11L253.11 64.11Q252.31 64.11 251.67 63.72Q251.03 63.33 250.66 62.58Q250.29 61.83 250.29 60.77L250.29 60.77Q250.29 59.86 250.54 59.21Q250.80 58.55 251.24 58.13Q251.68 57.70 252.24 57.49Q252.81 57.29 253.43 57.29L253.43 57.29Q253.93 57.29 254.49 57.42Q255.06 57.56 255.49 57.80L255.49 57.80L255.44 59.36L254.76 59.36L254.61 58.26Q254.34 58.14 254.04 58.09L254.04 58.09Q253.69 58.02 253.41 58.02L253.41 58.02Q252.76 58.02 252.29 58.36Q251.83 58.69 251.58 59.29Q251.33 59.89 251.33 60.71L251.33 60.71Q251.33 61.56 251.59 62.15Q251.85 62.74 252.31 63.04Q252.76 63.34 253.34 63.34L253.34 63.34Q253.79 63.34 254.29 63.15Q254.79 62.96 255.33 62.59L255.33 62.59L255.68 63.14Q255.03 63.64 254.38 63.88Q253.72 64.11 253.11 64.11Z M259.79 64L256.60 64L256.60 63.46L257.57 63.25L257.57 58.19L256.60 57.98L256.60 57.44L258.35 57.35L258.46 58.40Q258.98 57.90 259.45 57.61L259.45 57.61Q259.99 57.29 260.63 57.29L260.63 57.29Q261.02 57.29 261.46 57.41L261.46 57.41L261.39 59.16L260.76 59.16L260.64 58.13Q260.59 58.13 260.54 58.11L260.54 58.11Q260.44 58.10 260.34 58.10L260.34 58.10Q259.84 58.10 259.38 58.40L259.38 58.40Q258.95 58.66 258.57 59.06L258.57 59.06L258.57 63.25L259.79 63.46L259.79 64Z M264.10 57.36L264.10 63.25L265.07 63.46L265.07 64L262.13 64L262.13 63.46L263.10 63.25L263.10 58.17L262.13 57.98L262.13 57.44L264.10 57.36ZM263.52 56.01L263.52 56.01Q263.24 56.01 263.05 55.83Q262.86 55.64 262.86 55.31L262.86 55.31Q262.86 54.98 263.06 54.79Q263.25 54.61 263.54 54.61L263.54 54.61Q263.84 54.61 264.02 54.79Q264.21 54.96 264.21 55.31L264.21 55.31Q264.21 55.65 264.01 55.83Q263.81 56.01 263.52 56.01Z M268.84 66.88L265.71 66.88L265.71 66.34L266.69 66.11L266.69 58.17L265.71 57.98L265.71 57.44L267.46 57.35L267.57 58.27Q268.10 57.80 268.63 57.55L268.63 57.55Q269.20 57.29 269.76 57.29L269.76 57.29Q270.46 57.29 271.02 57.67Q271.57 58.06 271.90 58.79Q272.23 59.52 272.23 60.59L272.23 60.59Q272.23 61.74 271.83 62.52Q271.44 63.31 270.73 63.72Q270.01 64.13 269.05 64.13L269.05 64.13Q268.70 64.13 268.32 64.06L268.32 64.06Q268.02 64.01 267.69 63.94L267.69 63.94L267.69 66.11L268.84 66.34L268.84 66.88ZM268.94 63.38L268.94 63.38Q270.04 63.38 270.61 62.66Q271.19 61.95 271.19 60.69L271.19 60.69Q271.19 59.86 270.96 59.27Q270.73 58.69 270.32 58.37Q269.93 58.05 269.41 58.05L269.41 58.05Q268.98 58.05 268.51 58.27L268.51 58.27Q268.10 58.49 267.69 58.86L267.69 58.86L267.69 63.17Q268.38 63.38 268.94 63.38Z M275.51 64.11L275.51 64.11Q274.86 64.11 274.49 63.71Q274.11 63.30 274.11 62.48L274.11 62.48L274.11 58.10L272.99 58.10L272.99 57.55L274.11 57.39L274.11 55.91L275.11 55.75L275.11 57.40L276.94 57.40L276.90 58.10L275.11 58.10L275.11 62.34Q275.11 62.86 275.32 63.10Q275.52 63.34 275.90 63.34L275.90 63.34Q276.13 63.34 276.39 63.26Q276.65 63.19 276.95 63.05L276.95 63.05L277.16 63.63Q276.27 64.11 275.51 64.11Z" fill="#1a4d68"/></g><g><rect x="301" y="48" width="114" height="24" rx="10" fill="#f7ecbe"/><rect x="305" y="49" width="22" height="22" rx="8" fill="rgba(255,255,255,0.65)"/><path d="M311.83 56.92L311.83 56.16L314.93 56.11L314.93 56.84L314.17 57.13L314.17 62.39Q314.17 63.05 314.06 63.57Q313.96 64.10 313.71 64.47Q313.45 64.84 313.03 65.04Q312.60 65.23 311.95 65.23L311.95 65.23Q311.76 65.23 311.57 65.22Q311.37 65.20 311.15 65.17L311.15 65.17L311.28 64.10Q311.39 64.11 311.47 64.12Q311.55 64.13 311.64 64.13L311.64 64.13Q312.20 64.13 312.44 63.78Q312.67 63.43 312.67 62.69L312.67 62.69L312.67 57.13L311.83 56.92Z M317.13 59.31L317.13 59.31Q317.13 59.55 317.34 59.70Q317.55 59.85 317.88 59.95Q318.21 60.06 318.58 60.17Q318.96 60.29 319.29 60.47Q319.62 60.65 319.83 60.96Q320.04 61.26 320.04 61.75L320.04 61.75Q320.04 62.37 319.70 62.79Q319.37 63.21 318.79 63.42Q318.21 63.63 317.49 63.63L317.49 63.63Q317.07 63.63 316.60 63.55Q316.13 63.48 315.64 63.35L315.64 63.35L315.70 61.77L316.62 61.77L316.72 62.54Q316.89 62.59 317.08 62.61L317.08 62.61Q317.33 62.65 317.52 62.65L317.52 62.65Q317.79 62.65 318.03 62.58Q318.26 62.50 318.41 62.36Q318.57 62.22 318.57 62.00L318.57 62.00Q318.57 61.75 318.36 61.60Q318.15 61.45 317.82 61.35Q317.49 61.24 317.12 61.13Q316.76 61.01 316.43 60.82Q316.10 60.63 315.89 60.32Q315.68 60.00 315.68 59.50L315.68 59.50Q315.68 58.89 315.98 58.51Q316.29 58.12 316.80 57.95Q317.31 57.77 317.92 57.77L317.92 57.77Q318.35 57.77 318.83 57.85Q319.31 57.92 319.82 58.07L319.82 58.07L319.76 59.48L318.83 59.48L318.69 58.83Q318.30 58.73 317.99 58.73L317.99 58.73Q317.60 58.73 317.37 58.89Q317.13 59.04 317.13 59.31Z" fill="#553d1a"/><path d="M334.38 55.88L334.38 55.34L337.68 55.27L337.68 55.81L336.59 56.06L336.59 63.31Q336.59 63.92 336.47 64.39Q336.35 64.86 336.09 65.17Q335.84 65.49 335.43 65.65Q335.02 65.81 334.45 65.81L334.45 65.81Q334.27 65.81 334.10 65.79Q333.93 65.78 333.74 65.75L333.74 65.75L333.82 65Q333.94 65.01 334.04 65.02Q334.14 65.03 334.25 65.03L334.25 65.03Q334.96 65.03 335.26 64.66Q335.56 64.29 335.56 63.50L335.56 63.50L335.56 56.05L334.38 55.88Z M343.75 59.15L343.75 63.25L344.74 63.44L344.74 63.99L342.99 64.06L342.85 62.98Q342.34 63.52 341.74 63.80L341.74 63.80Q341.10 64.11 340.50 64.11L340.50 64.11Q339.77 64.11 339.27 63.65Q338.77 63.19 338.77 62.25L338.77 62.25Q338.77 61.51 339.09 61.12Q339.40 60.73 339.95 60.56Q340.50 60.40 341.22 60.40L341.22 60.40L342.75 60.40L342.75 59.33Q342.75 58.64 342.39 58.34Q342.02 58.05 341.39 58.05L341.39 58.05Q341.05 58.05 340.68 58.11L340.68 58.11Q340.35 58.17 340 58.29L340 58.29L339.89 59.31L339.22 59.31L339.13 57.76Q339.84 57.52 340.46 57.41Q341.09 57.29 341.61 57.29L341.61 57.29Q342.61 57.29 343.18 57.73Q343.75 58.17 343.75 59.15L343.75 59.15ZM339.79 62.16L339.79 62.16Q339.79 62.77 340.08 63.06Q340.38 63.35 340.82 63.35L340.82 63.35Q341.26 63.35 341.80 63.08L341.80 63.08Q342.29 62.84 342.75 62.41L342.75 62.41L342.75 61.05L341.38 61.05Q340.49 61.05 340.14 61.32Q339.79 61.59 339.79 62.16Z M349.00 57.98L349.00 57.44L351.61 57.35L351.61 57.90L350.89 58.11L348.76 64.03L347.59 64.03L345.65 58.13L344.91 57.98L344.91 57.44L347.66 57.35L347.66 57.90L346.66 58.09L348.25 63.24L349.97 58.10L349.00 57.98Z M357.17 59.15L357.17 63.25L358.16 63.44L358.16 63.99L356.41 64.06L356.27 62.98Q355.76 63.52 355.16 63.80L355.16 63.80Q354.52 64.11 353.92 64.11L353.92 64.11Q353.20 64.11 352.70 63.65Q352.20 63.19 352.20 62.25L352.20 62.25Q352.20 61.51 352.51 61.12Q352.82 60.73 353.37 60.56Q353.92 60.40 354.65 60.40L354.65 60.40L356.17 60.40L356.17 59.33Q356.17 58.64 355.81 58.34Q355.45 58.05 354.81 58.05L354.81 58.05Q354.47 58.05 354.10 58.11L354.10 58.11Q353.77 58.17 353.42 58.29L353.42 58.29L353.31 59.31L352.65 59.31L352.55 57.76Q353.26 57.52 353.89 57.41Q354.51 57.29 355.04 57.29L355.04 57.29Q356.04 57.29 356.61 57.73Q357.17 58.17 357.17 59.15L357.17 59.15ZM353.21 62.16L353.21 62.16Q353.21 62.77 353.51 63.06Q353.80 63.35 354.25 63.35L354.25 63.35Q354.69 63.35 355.22 63.08L355.22 63.08Q355.71 62.84 356.17 62.41L356.17 62.41L356.17 61.05L354.80 61.05Q353.91 61.05 353.56 61.32Q353.21 61.59 353.21 62.16Z M360.39 57.40L360.39 57.40Q360.39 57.88 360.64 58.17Q360.89 58.48 361.31 58.67Q361.72 58.86 362.22 59.01Q362.72 59.16 363.22 59.34Q363.72 59.52 364.14 59.79Q364.55 60.06 364.81 60.49Q365.06 60.92 365.06 61.58L365.06 61.58Q365.06 62.45 364.62 63.01Q364.17 63.58 363.44 63.84Q362.70 64.11 361.82 64.11L361.82 64.11Q361.20 64.11 360.55 63.98Q359.90 63.85 359.27 63.59L359.27 63.59L359.35 61.54L359.96 61.54L360.15 62.98Q360.54 63.14 360.96 63.23L360.96 63.23Q361.44 63.33 361.89 63.33L361.89 63.33Q362.47 63.33 362.96 63.14Q363.45 62.96 363.75 62.61Q364.05 62.25 364.05 61.71L364.05 61.71Q364.05 61.21 363.79 60.91Q363.54 60.60 363.12 60.40Q362.71 60.20 362.21 60.05Q361.71 59.90 361.21 59.73Q360.71 59.56 360.30 59.30Q359.89 59.04 359.63 58.62Q359.37 58.20 359.37 57.55L359.37 57.55Q359.37 56.75 359.77 56.22Q360.16 55.69 360.84 55.42Q361.52 55.16 362.36 55.16L362.36 55.16Q362.95 55.16 363.59 55.29Q364.22 55.41 364.84 55.67L364.84 55.67L364.74 57.64L364.11 57.64L363.94 56.23Q363.62 56.11 363.26 56.04L363.26 56.04Q362.82 55.95 362.39 55.95L362.39 55.95Q361.87 55.95 361.41 56.09Q360.95 56.24 360.67 56.56Q360.39 56.88 360.39 57.40Z M369.30 64.11L369.30 64.11Q368.50 64.11 367.86 63.72Q367.21 63.33 366.84 62.58Q366.47 61.83 366.47 60.77L366.47 60.77Q366.47 59.86 366.73 59.21Q366.99 58.55 367.42 58.13Q367.86 57.70 368.43 57.49Q369.00 57.29 369.61 57.29L369.61 57.29Q370.11 57.29 370.68 57.42Q371.25 57.56 371.67 57.80L371.67 57.80L371.62 59.36L370.95 59.36L370.80 58.26Q370.52 58.14 370.22 58.09L370.22 58.09Q369.87 58.02 369.60 58.02L369.60 58.02Q368.95 58.02 368.48 58.36Q368.01 58.69 367.76 59.29Q367.51 59.89 367.51 60.71L367.51 60.71Q367.51 61.56 367.77 62.15Q368.04 62.74 368.49 63.04Q368.95 63.34 369.52 63.34L369.52 63.34Q369.97 63.34 370.47 63.15Q370.97 62.96 371.51 62.59L371.51 62.59L371.86 63.14Q371.21 63.64 370.56 63.88Q369.91 64.11 369.30 64.11Z M375.97 64L372.79 64L372.79 63.46L373.76 63.25L373.76 58.19L372.79 57.98L372.79 57.44L374.54 57.35L374.65 58.40Q375.16 57.90 375.64 57.61L375.64 57.61Q376.17 57.29 376.81 57.29L376.81 57.29Q377.21 57.29 377.65 57.41L377.65 57.41L377.57 59.16L376.95 59.16L376.82 58.13Q376.77 58.13 376.72 58.11L376.72 58.11Q376.62 58.10 376.52 58.10L376.52 58.10Q376.02 58.10 375.56 58.40L375.56 58.40Q375.14 58.66 374.76 59.06L374.76 59.06L374.76 63.25L375.97 63.46L375.97 64Z M380.29 57.36L380.29 63.25L381.26 63.46L381.26 64L378.31 64L378.31 63.46L379.29 63.25L379.29 58.17L378.31 57.98L378.31 57.44L380.29 57.36ZM379.71 56.01L379.71 56.01Q379.42 56.01 379.24 55.83Q379.05 55.64 379.05 55.31L379.05 55.31Q379.05 54.98 379.24 54.79Q379.44 54.61 379.72 54.61L379.72 54.61Q380.02 54.61 380.21 54.79Q380.40 54.96 380.40 55.31L380.40 55.31Q380.40 55.65 380.20 55.83Q380.00 56.01 379.71 56.01Z M385.02 66.88L381.90 66.88L381.90 66.34L382.87 66.11L382.87 58.17L381.90 57.98L381.90 57.44L383.65 57.35L383.76 58.27Q384.29 57.80 384.81 57.55L384.81 57.55Q385.39 57.29 385.95 57.29L385.95 57.29Q386.65 57.29 387.21 57.67Q387.76 58.06 388.09 58.79Q388.41 59.52 388.41 60.59L388.41 60.59Q388.41 61.74 388.02 62.52Q387.62 63.31 386.91 63.72Q386.20 64.13 385.24 64.13L385.24 64.13Q384.89 64.13 384.51 64.06L384.51 64.06Q384.21 64.01 383.87 63.94L383.87 63.94L383.87 66.11L385.02 66.34L385.02 66.88ZM385.12 63.38L385.12 63.38Q386.22 63.38 386.80 62.66Q387.37 61.95 387.37 60.69L387.37 60.69Q387.37 59.86 387.14 59.27Q386.91 58.69 386.51 58.37Q386.11 58.05 385.60 58.05L385.60 58.05Q385.16 58.05 384.70 58.27L384.70 58.27Q384.29 58.49 383.87 58.86L383.87 58.86L383.87 63.17Q384.56 63.38 385.12 63.38Z M391.70 64.11L391.70 64.11Q391.05 64.11 390.67 63.71Q390.30 63.30 390.30 62.48L390.30 62.48L390.30 58.10L389.17 58.10L389.17 57.55L390.30 57.39L390.30 55.91L391.30 55.75L391.30 57.40L393.12 57.40L393.09 58.10L391.30 58.10L391.30 62.34Q391.30 62.86 391.51 63.10Q391.71 63.34 392.09 63.34L392.09 63.34Q392.31 63.34 392.57 63.26Q392.84 63.19 393.14 63.05L393.14 63.05L393.35 63.63Q392.46 64.11 391.70 64.11Z" fill="#553d1a"/></g><g><rect x="16" y="80" width="73" height="24" rx="10" fill="#f1d0be"/><rect x="20" y="81" width="22" height="22" rx="8" fill="rgba(255,255,255,0.65)"/><path d="M26.47 88.92L26.47 88.16L29.58 88.11L29.58 88.84L28.81 89.13L28.81 94.39Q28.81 95.05 28.71 95.57Q28.60 96.10 28.35 96.47Q28.10 96.84 27.67 97.04Q27.25 97.23 26.60 97.23L26.60 97.23Q26.41 97.23 26.21 97.22Q26.02 97.20 25.80 97.17L25.80 97.17L25.92 96.10Q26.03 96.11 26.11 96.12Q26.20 96.13 26.28 96.13L26.28 96.13Q26.85 96.13 27.08 95.78Q27.31 95.43 27.31 94.69L27.31 94.69L27.31 89.13L26.47 88.92Z M34.91 91.49L34.91 94.52L35.61 94.74L35.61 95.49L33.78 95.58L33.60 94.70Q33.22 95.14 32.77 95.37L32.77 95.37Q32.28 95.63 31.75 95.63L31.75 95.63Q31.08 95.63 30.64 95.20Q30.20 94.77 30.20 93.96L30.20 93.96Q30.20 93.36 30.45 93.01Q30.71 92.65 31.20 92.50Q31.70 92.34 32.40 92.34L32.40 92.34L33.44 92.34L33.44 91.76Q33.44 91.27 33.21 91.06Q32.97 90.85 32.52 90.85L32.52 90.85Q32.30 90.85 32.04 90.89L32.04 90.89Q31.85 90.92 31.62 90.98L31.62 90.98L31.51 91.71L30.60 91.71L30.51 90.18Q31.23 89.97 31.82 89.87Q32.41 89.77 32.91 89.77L32.91 89.77Q33.88 89.77 34.40 90.19Q34.91 90.61 34.91 91.49L34.91 91.49ZM31.68 93.81L31.68 93.81Q31.68 94.20 31.86 94.38Q32.04 94.57 32.33 94.57L32.33 94.57Q32.59 94.57 32.91 94.40L32.91 94.40Q33.19 94.26 33.44 94.02L33.44 94.02L33.44 93.12L32.64 93.12Q32.10 93.12 31.89 93.28Q31.68 93.45 31.68 93.81Z" fill="#5e3729"/><path d="M49.38 87.88L49.38 87.34L52.67 87.28L52.67 87.81L51.59 88.06L51.59 95.31Q51.59 95.92 51.47 96.39Q51.35 96.86 51.09 97.17Q50.84 97.49 50.43 97.65Q50.02 97.81 49.45 97.81L49.45 97.81Q49.27 97.81 49.10 97.79Q48.92 97.78 48.74 97.75L48.74 97.75L48.83 97Q48.94 97.01 49.04 97.02Q49.14 97.03 49.25 97.03L49.25 97.03Q49.96 97.03 50.26 96.66Q50.56 96.29 50.56 95.50L50.56 95.50L50.56 88.05L49.38 87.88Z M58.75 91.15L58.75 95.25L59.74 95.44L59.74 95.99L57.99 96.06L57.85 94.97Q57.34 95.53 56.74 95.80L56.74 95.80Q56.10 96.11 55.50 96.11L55.50 96.11Q54.78 96.11 54.28 95.65Q53.78 95.19 53.78 94.25L53.78 94.25Q53.78 93.51 54.09 93.12Q54.40 92.72 54.95 92.56Q55.50 92.40 56.23 92.40L56.23 92.40L57.75 92.40L57.75 91.33Q57.75 90.64 57.39 90.34Q57.03 90.05 56.39 90.05L56.39 90.05Q56.05 90.05 55.68 90.11L55.68 90.11Q55.35 90.17 55 90.29L55 90.29L54.89 91.31L54.23 91.31L54.13 89.76Q54.84 89.53 55.46 89.41Q56.09 89.29 56.61 89.29L56.61 89.29Q57.61 89.29 58.18 89.73Q58.75 90.17 58.75 91.15L58.75 91.15ZM54.79 94.16L54.79 94.16Q54.79 94.78 55.08 95.06Q55.38 95.35 55.83 95.35L55.83 95.35Q56.26 95.35 56.80 95.08L56.80 95.08Q57.29 94.84 57.75 94.41L57.75 94.41L57.75 93.05L56.38 93.05Q55.49 93.05 55.14 93.32Q54.79 93.59 54.79 94.16Z M64 89.97L64 89.44L66.61 89.35L66.61 89.90L65.89 90.11L63.76 96.03L62.59 96.03L60.65 90.13L59.91 89.97L59.91 89.44L62.66 89.35L62.66 89.90L61.66 90.09L63.25 95.24L64.97 90.10L64 89.97Z M72.17 91.15L72.17 95.25L73.16 95.44L73.16 95.99L71.41 96.06L71.28 94.97Q70.76 95.53 70.16 95.80L70.16 95.80Q69.53 96.11 68.92 96.11L68.92 96.11Q68.20 96.11 67.70 95.65Q67.20 95.19 67.20 94.25L67.20 94.25Q67.20 93.51 67.51 93.12Q67.83 92.72 68.38 92.56Q68.92 92.40 69.65 92.40L69.65 92.40L71.17 92.40L71.17 91.33Q71.17 90.64 70.81 90.34Q70.45 90.05 69.81 90.05L69.81 90.05Q69.47 90.05 69.10 90.11L69.10 90.11Q68.78 90.17 68.42 90.29L68.42 90.29L68.31 91.31L67.65 91.31L67.55 89.76Q68.26 89.53 68.89 89.41Q69.51 89.29 70.04 89.29L70.04 89.29Q71.04 89.29 71.61 89.73Q72.17 90.17 72.17 91.15L72.17 91.15ZM68.21 94.16L68.21 94.16Q68.21 94.78 68.51 95.06Q68.80 95.35 69.25 95.35L69.25 95.35Q69.69 95.35 70.22 95.08L70.22 95.08Q70.71 94.84 71.17 94.41L71.17 94.41L71.17 93.05L69.80 93.05Q68.91 93.05 68.56 93.32Q68.21 93.59 68.21 94.16Z" fill="#5e3729"/></g><g><rect x="95" y="80" width="52" height="24" rx="10" fill="#e0d9fa"/><rect x="99" y="81" width="22" height="22" rx="8" fill="rgba(255,255,255,0.65)"/><path d="M110.02 95.50L106.88 95.50L106.88 94.74L107.65 94.52L107.65 89.13L106.88 88.92L106.88 88.16L109.22 88.11L110.24 88.11Q111.50 88.11 112.14 88.63Q112.78 89.16 112.78 90.14L112.78 90.14Q112.78 91.03 112.24 91.60L112.24 91.60Q111.83 92.03 111.09 92.21L111.09 92.21Q111.16 92.23 111.22 92.27L111.22 92.27Q111.49 92.38 111.66 92.59Q111.83 92.79 111.98 93.07L111.98 93.07L112.75 94.54L113.35 94.74L113.35 95.50L111.63 95.50L110.69 93.47Q110.50 93.07 110.36 92.86Q110.23 92.64 110.03 92.57Q109.83 92.49 109.45 92.50L109.45 92.50L109.15 92.50L109.15 94.51L110.02 94.74L110.02 95.50ZM109.15 89.18L109.15 91.46L109.77 91.46Q110.51 91.46 110.88 91.15Q111.24 90.85 111.24 90.25L111.24 90.25Q111.24 89.75 110.95 89.46Q110.66 89.18 110.05 89.18L110.05 89.18L109.15 89.18Z" fill="#47406d"/><path d="M132 96L128.61 96L128.61 95.46L129.69 95.24L129.69 88.08L128.61 87.88L128.61 87.34L130.75 87.28L132.21 87.28Q133.63 87.28 134.35 87.86Q135.07 88.45 135.07 89.56L135.07 89.56Q135.07 90.59 134.44 91.24L134.44 91.24Q133.89 91.79 132.86 91.97L132.86 91.97Q133.09 92.03 133.26 92.11L133.26 92.11Q133.56 92.29 133.78 92.57Q133.99 92.85 134.19 93.26L134.19 93.26L135.16 95.24L135.97 95.46L135.97 96L134.44 96L133.29 93.54Q133.05 93 132.83 92.71Q132.61 92.41 132.29 92.29Q131.97 92.16 131.39 92.16L131.39 92.16L130.71 92.17L130.71 95.22L132 95.46L132 96ZM130.71 88.04L130.71 91.42L131.71 91.42Q132.82 91.42 133.43 90.97Q134.03 90.51 134.03 89.63L134.03 89.63Q134.03 88.85 133.54 88.44Q133.05 88.04 132.09 88.04L132.09 88.04L130.71 88.04Z" fill="#47406d"/></g><g><rect x="153" y="80" width="73" height="24" rx="10" fill="#c9e3c9"/><rect x="157" y="81" width="22" height="22" rx="8" fill="rgba(255,255,255,0.65)"/><path d="M166.00 96.88L164.99 96.88L164.99 95.49Q164.58 95.47 164.06 95.37L164.06 95.37Q163.45 95.27 162.89 95.05L162.89 95.05L162.91 93.05L163.81 93.05L163.99 94.11Q164.28 94.25 164.60 94.31Q164.92 94.38 165.23 94.38L165.23 94.38Q165.62 94.38 165.92 94.27Q166.23 94.17 166.41 93.95Q166.60 93.74 166.60 93.42L166.60 93.42Q166.60 93.08 166.40 92.88Q166.20 92.68 165.87 92.55Q165.54 92.42 165.14 92.31Q164.75 92.20 164.35 92.07Q163.96 91.93 163.63 91.71Q163.30 91.50 163.10 91.15Q162.90 90.80 162.90 90.26L162.90 90.26Q162.90 89.56 163.24 89.09Q163.58 88.62 164.17 88.38L164.17 88.38Q164.55 88.22 164.99 88.16L164.99 88.16L164.99 86.78L166.00 86.78L166.00 88.14Q166.18 88.16 166.39 88.19L166.39 88.19Q166.78 88.27 167.17 88.37Q167.55 88.48 167.83 88.59L167.83 88.59L167.73 90.42L166.83 90.42L166.63 89.41Q166.40 89.33 166.15 89.28Q165.89 89.23 165.63 89.23L165.63 89.23Q165.29 89.23 165.00 89.32Q164.70 89.41 164.52 89.59Q164.35 89.78 164.35 90.09L164.35 90.09Q164.35 90.40 164.55 90.59Q164.76 90.79 165.09 90.92Q165.42 91.05 165.82 91.16Q166.22 91.27 166.61 91.41Q167.01 91.55 167.34 91.78Q167.67 92.00 167.87 92.36Q168.07 92.71 168.07 93.24L168.07 93.24Q168.07 93.95 167.73 94.42Q167.39 94.90 166.81 95.16L166.81 95.16Q166.44 95.33 166.00 95.42L166.00 95.42L166.00 96.88Z M168.60 96.14L173.78 96.14L173.78 97.08L168.60 97.08L168.60 96.14Z" fill="#234725"/><path d="M191.09 91.51L191.09 91.51Q191.65 91.56 192.09 91.75L192.09 91.75Q192.68 92.01 192.97 92.49Q193.26 92.96 193.26 93.64L193.26 93.64Q193.26 94.34 192.93 94.87Q192.60 95.40 191.89 95.70Q191.19 96 190.09 96L190.09 96L186.61 96L186.61 95.46L187.69 95.24L187.69 88.08L186.61 87.88L186.61 87.34L188.68 87.28L190.22 87.28Q191.13 87.28 191.72 87.53Q192.32 87.78 192.63 88.25Q192.93 88.72 192.93 89.41L192.93 89.41Q192.93 90.31 192.38 90.88L192.38 90.88Q191.94 91.31 191.09 91.51ZM188.71 95.25L190.01 95.25Q190.75 95.25 191.24 95.05Q191.72 94.85 191.97 94.48Q192.21 94.11 192.21 93.58L192.21 93.58Q192.21 93.05 191.99 92.68Q191.78 92.31 191.36 92.11Q190.94 91.91 190.35 91.91L190.35 91.91L188.71 91.91L188.71 95.25ZM190.01 88.03L190.01 88.03L188.71 88.03L188.71 91.17L189.70 91.17Q190.44 91.17 190.93 90.99Q191.41 90.80 191.65 90.44Q191.89 90.08 191.89 89.55L191.89 89.55Q191.89 89.04 191.68 88.70Q191.46 88.36 191.05 88.19Q190.64 88.03 190.01 88.03Z M199.68 91.15L199.68 95.25L200.66 95.44L200.66 95.99L198.91 96.06L198.78 94.97Q198.26 95.53 197.66 95.80L197.66 95.80Q197.03 96.11 196.43 96.11L196.43 96.11Q195.70 96.11 195.20 95.65Q194.70 95.19 194.70 94.25L194.70 94.25Q194.70 93.51 195.01 93.12Q195.32 92.72 195.88 92.56Q196.43 92.40 197.15 92.40L197.15 92.40L198.68 92.40L198.68 91.33Q198.68 90.64 198.31 90.34Q197.95 90.05 197.31 90.05L197.31 90.05Q196.97 90.05 196.60 90.11L196.60 90.11Q196.28 90.17 195.93 90.29L195.93 90.29L195.81 91.31L195.15 91.31L195.05 89.76Q195.76 89.53 196.39 89.41Q197.01 89.29 197.54 89.29L197.54 89.29Q198.54 89.29 199.11 89.73Q199.68 90.17 199.68 91.15L199.68 91.15ZM195.71 94.16L195.71 94.16Q195.71 94.78 196.01 95.06Q196.30 95.35 196.75 95.35L196.75 95.35Q197.19 95.35 197.72 95.08L197.72 95.08Q198.21 94.84 198.68 94.41L198.68 94.41L198.68 93.05L197.30 93.05Q196.41 93.05 196.06 93.32Q195.71 93.59 195.71 94.16Z M202.64 91L202.64 91Q202.64 91.40 202.90 91.63Q203.16 91.85 203.58 91.99Q203.99 92.14 204.45 92.28Q204.91 92.41 205.33 92.61Q205.74 92.81 206 93.16Q206.26 93.51 206.26 94.09L206.26 94.09Q206.26 94.75 205.90 95.20Q205.54 95.65 204.92 95.88Q204.30 96.11 203.54 96.11L203.54 96.11Q203.08 96.11 202.59 96.04Q202.10 95.96 201.59 95.83L201.59 95.83L201.68 94.15L202.31 94.15L202.43 95.26Q202.68 95.33 202.95 95.36L202.95 95.36Q203.29 95.41 203.58 95.41L203.58 95.41Q204.03 95.41 204.41 95.28Q204.79 95.15 205.03 94.89Q205.26 94.64 205.26 94.25L205.26 94.25Q205.26 93.84 205.01 93.60Q204.75 93.36 204.34 93.21Q203.93 93.06 203.47 92.93Q203.01 92.80 202.60 92.59Q202.19 92.39 201.93 92.05Q201.66 91.71 201.66 91.13L201.66 91.13Q201.66 90.49 201.99 90.08Q202.33 89.67 202.87 89.48Q203.41 89.29 204.04 89.29L204.04 89.29Q204.46 89.29 204.97 89.38Q205.49 89.46 206.03 89.64L206.03 89.64L205.96 91.05L205.33 91.05L205.16 90.15Q204.59 90 204.06 90L204.06 90Q203.45 90 203.04 90.26Q202.64 90.51 202.64 91Z M210.11 96L207.20 96L207.20 95.46L208.18 95.25L208.18 87.19L207.20 86.97L207.20 86.44L209.18 86.35L209.18 90.31Q209.69 89.84 210.26 89.59L210.26 89.59Q210.94 89.29 211.55 89.29L211.55 89.29Q212.10 89.29 212.54 89.51Q212.97 89.74 213.22 90.19Q213.46 90.65 213.45 91.35L213.45 91.35L213.45 95.25L214.44 95.46L214.44 96L211.51 96L211.51 95.46L212.45 95.26L212.45 91.58Q212.47 90.80 212.11 90.44Q211.75 90.08 211.16 90.08L211.16 90.08Q210.70 90.08 210.16 90.33L210.16 90.33Q209.66 90.55 209.18 91.03L209.18 91.03L209.18 95.26L210.11 95.46L210.11 96Z" fill="#234725"/></g><g><rect x="232" y="80" width="114" height="24" rx="10" fill="#c4e8fa"/><rect x="236" y="81" width="22" height="22" rx="8" fill="rgba(255,255,255,0.65)"/><path d="M244.39 92.89L244.39 92.89L243.87 92.89L243.87 94.52L244.86 94.74L244.86 95.50L241.59 95.50L241.59 94.74L242.36 94.51L242.36 89.12L241.59 88.92L241.59 88.16L243.90 88.11L244.85 88.11Q245.72 88.11 246.28 88.41Q246.84 88.71 247.10 89.22Q247.37 89.74 247.37 90.39L247.37 90.39Q247.37 91.09 247.05 91.66Q246.73 92.23 246.08 92.56Q245.42 92.89 244.39 92.89ZM244.61 89.18L244.61 89.18L243.87 89.18L243.87 91.80L244.40 91.80Q245.10 91.80 245.47 91.43Q245.84 91.05 245.84 90.42L245.84 90.42Q245.84 89.84 245.53 89.51Q245.22 89.18 244.61 89.18Z M249.54 91.31L249.54 91.31Q249.54 91.55 249.75 91.70Q249.96 91.85 250.29 91.95Q250.62 92.06 250.99 92.17Q251.36 92.29 251.69 92.47Q252.02 92.65 252.23 92.96Q252.44 93.26 252.44 93.75L252.44 93.75Q252.44 94.37 252.11 94.79Q251.77 95.21 251.19 95.42Q250.62 95.63 249.89 95.63L249.89 95.63Q249.47 95.63 249.01 95.55Q248.54 95.48 248.04 95.35L248.04 95.35L248.11 93.77L249.03 93.77L249.13 94.54Q249.29 94.59 249.48 94.61L249.48 94.61Q249.74 94.65 249.92 94.65L249.92 94.65Q250.20 94.65 250.43 94.58Q250.67 94.50 250.82 94.36Q250.97 94.22 250.97 94.00L250.97 94.00Q250.97 93.75 250.76 93.60Q250.55 93.45 250.22 93.35Q249.89 93.24 249.53 93.13Q249.17 93.01 248.84 92.82Q248.51 92.63 248.30 92.32Q248.09 92.00 248.09 91.50L248.09 91.50Q248.09 90.89 248.39 90.51Q248.70 90.12 249.21 89.95Q249.71 89.77 250.32 89.77L250.32 89.77Q250.75 89.77 251.24 89.85Q251.72 89.92 252.22 90.07L252.22 90.07L252.17 91.48L251.24 91.48L251.10 90.83Q250.71 90.73 250.40 90.73L250.40 90.73Q250.01 90.73 249.77 90.89Q249.54 91.04 249.54 91.31Z" fill="#1a4d68"/><path d="M268.65 92.66L268.65 92.66L267.71 92.66L267.71 95.24L269.09 95.46L269.09 96L265.61 96L265.61 95.46L266.69 95.24L266.69 88.06L265.61 87.88L265.61 87.34L267.74 87.28L269.15 87.28Q270.11 87.28 270.74 87.60Q271.36 87.92 271.68 88.50Q271.99 89.08 271.99 89.84L271.99 89.84Q271.99 90.67 271.61 91.31Q271.24 91.95 270.49 92.31Q269.75 92.66 268.65 92.66ZM269 88.04L269 88.04L267.71 88.04L267.71 91.90L268.65 91.90Q269.75 91.90 270.34 91.35Q270.94 90.80 270.94 89.86L270.94 89.86Q270.94 89.01 270.44 88.53Q269.95 88.04 269 88.04Z M276.13 89.29L276.13 89.29Q277.50 89.29 278.28 90.15Q279.06 91.01 279.06 92.59L279.06 92.59Q279.06 93.65 278.68 94.44Q278.30 95.24 277.60 95.67Q276.90 96.11 275.91 96.11L275.91 96.11Q274.56 96.11 273.80 95.27Q273.04 94.42 273.04 92.84L273.04 92.84Q273.04 91.74 273.41 90.94Q273.77 90.15 274.47 89.72Q275.16 89.29 276.13 89.29ZM276.07 90.03L276.07 90.03Q275.11 90.03 274.60 90.75Q274.09 91.47 274.09 92.79L274.09 92.79Q274.09 94.08 274.57 94.72Q275.06 95.38 275.97 95.38L275.97 95.38Q276.64 95.38 277.09 95.04Q277.55 94.71 277.78 94.10Q278.01 93.49 278.01 92.64L278.01 92.64Q278.01 91.36 277.51 90.69Q277 90.03 276.07 90.03Z M287.18 89.97L287.18 89.44L289.69 89.35L289.69 89.90L288.95 90.08L287.27 96.03L286.18 96.03L284.65 90.47L283.02 96.03L281.93 96.03L280.32 90.11L279.57 89.97L279.57 89.44L282.27 89.35L282.27 89.90L281.27 90.08L282.56 95.11L284.15 89.42L285.24 89.35L286.77 95.15L288.13 90.11L287.18 89.97Z M293.09 96.11L293.09 96.11Q292.25 96.11 291.61 95.73Q290.96 95.35 290.60 94.61Q290.24 93.88 290.24 92.81L290.24 92.81Q290.24 91.72 290.61 90.94Q290.99 90.15 291.68 89.72Q292.36 89.29 293.29 89.29L293.29 89.29Q294.16 89.29 294.73 89.66Q295.30 90.03 295.58 90.67Q295.86 91.33 295.86 92.16L295.86 92.16Q295.86 92.30 295.85 92.44Q295.84 92.58 295.81 92.78L295.81 92.78L291.27 92.78Q291.29 93.54 291.51 94.09L291.51 94.09Q291.75 94.69 292.21 95.01Q292.66 95.34 293.32 95.34L293.32 95.34Q293.79 95.34 294.34 95.16Q294.89 94.97 295.47 94.60L295.47 94.60L295.84 95.16Q295.14 95.64 294.44 95.88Q293.74 96.11 293.09 96.11ZM291.31 92.06L291.31 92.06L294.82 92.06Q294.82 91.54 294.69 91.10L294.69 91.10Q294.54 90.63 294.18 90.34Q293.81 90.05 293.21 90.05L293.21 90.05Q292.57 90.05 292.14 90.39Q291.70 90.72 291.49 91.31L291.49 91.31Q291.36 91.65 291.31 92.06Z M300.14 96L296.95 96L296.95 95.46L297.92 95.25L297.92 90.19L296.95 89.97L296.95 89.44L298.70 89.35L298.81 90.40Q299.32 89.90 299.80 89.61L299.80 89.61Q300.34 89.29 300.97 89.29L300.97 89.29Q301.37 89.29 301.81 89.41L301.81 89.41L301.74 91.16L301.11 91.16L300.99 90.13Q300.94 90.13 300.89 90.11L300.89 90.11Q300.79 90.10 300.69 90.10L300.69 90.10Q300.19 90.10 299.72 90.40L299.72 90.40Q299.30 90.66 298.92 91.06L298.92 91.06L298.92 95.25L300.14 95.46L300.14 96Z M303.99 89.40L303.99 89.40Q303.99 89.88 304.24 90.17Q304.49 90.47 304.91 90.67Q305.32 90.86 305.82 91.01Q306.32 91.16 306.82 91.34Q307.32 91.53 307.74 91.79Q308.15 92.06 308.41 92.49Q308.66 92.92 308.66 93.58L308.66 93.58Q308.66 94.45 308.22 95.01Q307.77 95.58 307.04 95.84Q306.30 96.11 305.42 96.11L305.42 96.11Q304.80 96.11 304.15 95.98Q303.50 95.85 302.87 95.59L302.87 95.59L302.95 93.54L303.56 93.54L303.75 94.97Q304.14 95.14 304.56 95.22L304.56 95.22Q305.04 95.33 305.49 95.33L305.49 95.33Q306.07 95.33 306.56 95.14Q307.05 94.96 307.35 94.61Q307.65 94.25 307.65 93.71L307.65 93.71Q307.65 93.21 307.39 92.91Q307.14 92.60 306.72 92.40Q306.31 92.20 305.81 92.05Q305.31 91.90 304.81 91.73Q304.31 91.56 303.90 91.30Q303.49 91.04 303.23 90.62Q302.97 90.20 302.97 89.55L302.97 89.55Q302.97 88.75 303.37 88.22Q303.76 87.69 304.44 87.42Q305.12 87.16 305.96 87.16L305.96 87.16Q306.55 87.16 307.19 87.29Q307.82 87.41 308.44 87.67L308.44 87.67L308.34 89.64L307.71 89.64L307.54 88.22Q307.22 88.11 306.86 88.04L306.86 88.04Q306.42 87.95 305.99 87.95L305.99 87.95Q305.47 87.95 305.01 88.09Q304.55 88.24 304.27 88.56Q303.99 88.88 303.99 89.40Z M312.74 96L309.82 96L309.82 95.46L310.80 95.25L310.80 87.19L309.82 86.97L309.82 86.44L311.80 86.35L311.80 90.31Q312.31 89.84 312.89 89.59L312.89 89.59Q313.56 89.29 314.17 89.29L314.17 89.29Q314.72 89.29 315.16 89.51Q315.60 89.74 315.84 90.19Q316.09 90.65 316.07 91.35L316.07 91.35L316.07 95.25L317.06 95.46L317.06 96L314.14 96L314.14 95.46L315.07 95.26L315.07 91.58Q315.10 90.80 314.74 90.44Q314.37 90.08 313.79 90.08L313.79 90.08Q313.32 90.08 312.79 90.33L312.79 90.33Q312.29 90.55 311.80 91.03L311.80 91.03L311.80 95.26L312.74 95.46L312.74 96Z M320.72 96.11L320.72 96.11Q319.89 96.11 319.24 95.73Q318.60 95.35 318.24 94.61Q317.87 93.88 317.87 92.81L317.87 92.81Q317.87 91.72 318.25 90.94Q318.62 90.15 319.31 89.72Q320.00 89.29 320.92 89.29L320.92 89.29Q321.80 89.29 322.37 89.66Q322.94 90.03 323.22 90.67Q323.50 91.33 323.50 92.16L323.50 92.16Q323.50 92.30 323.49 92.44Q323.47 92.58 323.45 92.78L323.45 92.78L318.91 92.78Q318.92 93.54 319.15 94.09L319.15 94.09Q319.39 94.69 319.84 95.01Q320.30 95.34 320.96 95.34L320.96 95.34Q321.42 95.34 321.97 95.16Q322.52 94.97 323.11 94.60L323.11 94.60L323.47 95.16Q322.77 95.64 322.07 95.88Q321.37 96.11 320.72 96.11ZM318.95 92.06L318.95 92.06L322.46 92.06Q322.46 91.54 322.32 91.10L322.32 91.10Q322.17 90.63 321.81 90.34Q321.45 90.05 320.85 90.05L320.85 90.05Q320.21 90.05 319.77 90.39Q319.34 90.72 319.12 91.31L319.12 91.31Q319.00 91.65 318.95 92.06Z M326.41 86.35L326.41 95.25L327.40 95.46L327.40 96L324.44 96L324.44 95.46L325.41 95.25L325.41 87.17L324.44 86.97L324.44 86.44L326.41 86.35Z M330.01 86.35L330.01 95.25L331.00 95.46L331.00 96L328.04 96L328.04 95.46L329.01 95.25L329.01 87.17L328.04 86.97L328.04 86.44L330.01 86.35Z" fill="#1a4d68"/></g><g><rect x="352" y="80" width="79" height="24" rx="10" fill="#c2d6b0"/><rect x="356" y="81" width="22" height="22" rx="8" fill="rgba(255,255,255,0.65)"/><path d="M365.66 95.50L362.36 95.50L362.36 94.74L363.26 94.52L363.26 89.19L362.12 89.19L361.90 90.23L361.01 90.23L361.01 88.11L367.02 88.11L367.02 90.23L366.12 90.23L365.91 89.19L364.77 89.19L364.77 94.51L365.66 94.74L365.66 95.50Z M368.78 95.50L367.33 95.50L367.33 94.75L367.95 94.62L369.36 92.65L368.04 90.83L367.46 90.69L367.46 89.94L370.06 89.85L370.06 90.60L369.58 90.70L370.30 91.75L371.52 89.94L372.96 89.85L372.96 90.60L372.37 90.74L370.95 92.67L372.36 94.58L373.07 94.74L373.07 95.50L370.29 95.50L370.29 94.74L370.77 94.65L370.03 93.60L368.78 95.50Z" fill="#223a13"/><path d="M390.74 95.24L390.95 93.78L391.57 93.78L391.57 96L385.61 96L385.61 95.46L386.69 95.24L386.69 88.08L385.61 87.88L385.61 87.34L388.94 87.28L388.94 87.81L387.71 88.08L387.71 95.24L390.74 95.24Z M397.53 91.15L397.53 95.25L398.51 95.44L398.51 95.99L396.76 96.06L396.63 94.97Q396.11 95.53 395.51 95.80L395.51 95.80Q394.88 96.11 394.28 96.11L394.28 96.11Q393.55 96.11 393.05 95.65Q392.55 95.19 392.55 94.25L392.55 94.25Q392.55 93.51 392.86 93.12Q393.18 92.72 393.73 92.56Q394.28 92.40 395 92.40L395 92.40L396.53 92.40L396.53 91.33Q396.53 90.64 396.16 90.34Q395.80 90.05 395.16 90.05L395.16 90.05Q394.83 90.05 394.45 90.11L394.45 90.11Q394.13 90.17 393.78 90.29L393.78 90.29L393.66 91.31L393 91.31L392.90 89.76Q393.61 89.53 394.24 89.41Q394.86 89.29 395.39 89.29L395.39 89.29Q396.39 89.29 396.96 89.73Q397.53 90.17 397.53 91.15L397.53 91.15ZM393.56 94.16L393.56 94.16Q393.56 94.78 393.86 95.06Q394.15 95.35 394.60 95.35L394.60 95.35Q395.04 95.35 395.58 95.08L395.58 95.08Q396.06 94.84 396.53 94.41L396.53 94.41L396.53 93.05L395.15 93.05Q394.26 93.05 393.91 93.32Q393.56 93.59 393.56 94.16Z M404.16 96L400.65 96L400.65 95.46L401.90 95.24L401.90 88.04L399.93 88.04L399.71 89.41L399.09 89.41L399.09 87.28L405.73 87.28L405.73 89.41L405.10 89.41L404.88 88.04L402.91 88.04L402.91 95.24L404.16 95.46L404.16 96Z M409.51 96.11L409.51 96.11Q408.68 96.11 408.03 95.73Q407.39 95.35 407.02 94.61Q406.66 93.88 406.66 92.81L406.66 92.81Q406.66 91.72 407.04 90.94Q407.41 90.15 408.10 89.72Q408.79 89.29 409.71 89.29L409.71 89.29Q410.59 89.29 411.16 89.66Q411.73 90.03 412.01 90.67Q412.29 91.33 412.29 92.16L412.29 92.16Q412.29 92.30 412.27 92.44Q412.26 92.58 412.24 92.78L412.24 92.78L407.70 92.78Q407.71 93.54 407.94 94.09L407.94 94.09Q408.18 94.69 408.63 95.01Q409.09 95.34 409.75 95.34L409.75 95.34Q410.21 95.34 410.76 95.16Q411.31 94.97 411.90 94.60L411.90 94.60L412.26 95.16Q411.56 95.64 410.86 95.88Q410.16 96.11 409.51 96.11ZM407.74 92.06L407.74 92.06L411.25 92.06Q411.25 91.54 411.11 91.10L411.11 91.10Q410.96 90.63 410.60 90.34Q410.24 90.05 409.64 90.05L409.64 90.05Q409 90.05 408.56 90.39Q408.13 90.72 407.91 91.31L407.91 91.31Q407.79 91.65 407.74 92.06Z M417.82 91.46L420.42 95.26L421.35 95.46L421.35 96L418.10 96L418.10 95.46L419.25 95.25L417.16 92.14L415.09 95.24L416.17 95.46L416.17 96L413.17 96L413.17 95.46L414.15 95.25L416.69 91.56L414.29 88.03L413.34 87.88L413.34 87.34L416.52 87.28L416.52 87.81L415.49 88.03L417.38 90.88L419.27 88.05L418.24 87.88L418.24 87.34L421.19 87.28L421.19 87.81L420.19 88.08L417.82 91.46Z" fill="#223a13"/></g><g><rect x="16" y="112" width="79" height="24" rx="10" fill="#fedabd"/><rect x="20" y="113" width="22" height="22" rx="8" fill="rgba(255,255,255,0.65)"/><path d="M27.42 127.50L24.37 127.50L24.37 126.74L25.15 126.52L25.15 121.14L24.37 120.92L24.37 120.16L27.42 120.11L27.42 120.86L26.65 121.13L26.65 123.19L29.61 123.19L29.61 121.13L28.84 120.92L28.84 120.16L31.88 120.11L31.88 120.86L31.12 121.12L31.12 126.52L31.88 126.74L31.88 127.50L28.84 127.50L28.84 126.74L29.61 126.51L29.61 124.28L26.65 124.28L26.65 126.51L27.42 126.74L27.42 127.50Z M34.93 127.62L34.93 127.62Q33.78 127.62 32.55 127.06L32.55 127.06L32.96 126.01Q33.40 126.21 33.86 126.32Q34.31 126.44 34.70 126.44L34.70 126.44Q35.11 126.44 35.42 126.30Q35.74 126.16 35.91 125.88Q36.08 125.61 36.08 125.21L36.08 125.21Q36.08 124.72 35.80 124.47Q35.53 124.22 35.01 124.13Q34.49 124.05 33.74 124.05L33.74 124.05L32.99 124.05L33.14 120.11L37.33 120.11L37.31 121.26L34.61 121.26L34.53 122.95L34.75 122.95Q35.80 122.95 36.44 123.22Q37.08 123.48 37.37 123.97Q37.66 124.45 37.66 125.13L37.66 125.13Q37.66 125.95 37.31 126.50Q36.95 127.05 36.33 127.33Q35.71 127.62 34.93 127.62Z" fill="#673b26"/><path d="M52.80 128L49.61 128L49.61 127.46L50.69 127.24L50.69 120.06L49.61 119.88L49.61 119.34L52.80 119.28L52.80 119.81L51.71 120.06L51.71 123.17L56.24 123.17L56.24 120.06L55.16 119.88L55.16 119.34L58.35 119.28L58.35 119.81L57.26 120.06L57.26 127.24L58.35 127.46L58.35 128L55.16 128L55.16 127.46L56.24 127.24L56.24 123.94L51.71 123.94L51.71 127.24L52.80 127.46L52.80 128Z M64.36 128L60.85 128L60.85 127.46L62.10 127.24L62.10 120.04L60.13 120.04L59.91 121.41L59.29 121.41L59.29 119.28L65.92 119.28L65.92 121.41L65.30 121.41L65.08 120.04L63.11 120.04L63.11 127.24L64.36 127.46L64.36 128Z M76.80 119.28L76.80 119.81L75.71 120.06L75.71 127.24L76.80 127.46L76.80 128L73.69 128L73.69 127.46L74.76 127.24L74.76 120.72L72.09 125.72L71.40 125.78L68.80 120.69L68.80 127.24L69.89 127.46L69.89 128L66.88 128L66.88 127.46L67.95 127.24L67.95 120.06L66.88 119.88L66.88 119.34L69.21 119.28L71.85 124.61L74.58 119.34L76.80 119.28Z M83.14 127.24L83.35 125.78L83.98 125.78L83.98 128L78.01 128L78.01 127.46L79.09 127.24L79.09 120.08L78.01 119.88L78.01 119.34L81.34 119.28L81.34 119.81L80.11 120.08L80.11 127.24L83.14 127.24Z M87.38 128.10L87.38 128.10Q86.14 128.10 84.88 127.49L84.88 127.49L85.16 126.74Q85.70 127 86.22 127.14Q86.75 127.28 87.24 127.28L87.24 127.28Q87.88 127.28 88.34 127.04Q88.81 126.80 89.08 126.36Q89.34 125.91 89.34 125.31L89.34 125.31Q89.34 124.65 88.99 124.27Q88.65 123.89 87.96 123.72Q87.26 123.56 86.21 123.56L86.21 123.56L85.40 123.56L85.58 119.28L90.04 119.28L90.03 120.09L86.56 120.09L86.45 122.79L86.90 122.79Q88.13 122.79 88.90 123.08Q89.67 123.38 90.05 123.93Q90.42 124.49 90.42 125.30L90.42 125.30Q90.42 126.17 90.03 126.81Q89.64 127.44 88.95 127.77Q88.26 128.10 87.38 128.10Z" fill="#673b26"/></g></svg>