<svg xmlns="http://www.w3.org/2000/svg" width="480" height="90" viewBox="0 0 480 90" role="img"><rect x="0.5" y="0.5" width="479" height="89" rx="16" fill="#fdfcf6" stroke="#d6d9ce"/><path d="M26.07 19.58L26.07 20.32L25.13 20.61L25.13 27.00L26.07 27.26L26.07 28L22.84 28L22.84 27.26L23.78 27.02L23.78 21.59L21.63 25.80L20.68 25.86L18.62 21.59L18.62 27.02L19.55 27.26L19.55 28L16.48 28L16.48 27.26L17.42 27.02L17.42 20.61L16.48 20.38L16.48 19.64L19.23 19.58L21.33 24.21L23.51 19.64L26.07 19.58Z M31.41 28.13L31.41 28.13Q30.30 28.13 29.48 27.65Q28.65 27.17 28.19 26.22Q27.72 25.28 27.72 23.88L27.72 23.88Q27.72 22.78 28.01 21.95Q28.30 21.11 28.83 20.55Q29.36 20.00 30.07 19.72Q30.78 19.44 31.65 19.44L31.65 19.44Q32.49 19.44 33.18 19.71Q33.87 19.98 34.37 20.51Q34.86 21.04 35.15 21.82Q35.43 22.60 35.43 23.63L35.43 23.63Q35.43 25.05 34.92 26.05Q34.41 27.05 33.51 27.59Q32.61 28.13 31.41 28.13ZM31.52 26.99L31.52 26.99Q32.16 26.99 32.69 26.67Q33.21 26.34 33.53 25.62Q33.84 24.90 33.84 23.70L33.84 23.70Q33.84 22.59 33.55 21.90Q33.26 21.21 32.75 20.90Q32.25 20.58 31.58 20.58L31.58 20.58Q30.94 20.58 30.42 20.90Q29.90 21.21 29.60 21.92Q29.31 22.64 29.31 23.84L29.31 23.84Q29.31 24.95 29.58 25.65Q29.86 26.34 30.36 26.67Q30.86 26.99 31.52 26.99Z M38.78 21.68L38.78 21.68Q38.78 22.06 39.02 22.31Q39.26 22.55 39.65 22.72Q40.04 22.89 40.51 23.04Q40.98 23.19 41.45 23.37Q41.91 23.55 42.30 23.82Q42.69 24.10 42.93 24.53Q43.17 24.95 43.17 25.59L43.17 25.59Q43.17 26.46 42.72 27.03Q42.27 27.59 41.52 27.87Q40.77 28.14 39.87 28.14L39.87 28.14Q39.24 28.14 38.59 28.02Q37.94 27.89 37.31 27.64L37.31 27.64L37.37 25.46L38.24 25.46L38.43 26.73Q38.76 26.87 39.12 26.94L39.12 26.94Q39.54 27.04 39.94 27.04L39.94 27.04Q40.43 27.04 40.83 26.90Q41.24 26.76 41.48 26.48Q41.72 26.20 41.72 25.78L41.72 25.78Q41.72 25.37 41.48 25.11Q41.25 24.86 40.86 24.68Q40.47 24.51 40.00 24.37Q39.53 24.23 39.06 24.06Q38.60 23.88 38.21 23.61Q37.82 23.34 37.58 22.93Q37.35 22.52 37.35 21.87L37.35 21.87Q37.35 21.05 37.74 20.52Q38.14 19.98 38.82 19.71Q39.51 19.44 40.36 19.44L40.36 19.44Q40.96 19.44 41.61 19.57Q42.27 19.70 42.92 19.96L42.92 19.96L42.80 21.99L41.91 21.99L41.70 20.75Q41.45 20.67 41.18 20.61L41.18 20.61Q40.80 20.54 40.43 20.54L40.43 20.54Q40.00 20.54 39.62 20.65Q39.23 20.76 39.00 21.02Q38.78 21.27 38.78 21.68Z M49.83 28L46.19 28L46.19 27.26L47.27 27.00L47.27 20.64L45.77 20.64L45.54 21.88L44.66 21.88L44.66 19.58L51.36 19.58L51.36 21.88L50.48 21.88L50.25 20.64L48.75 20.64L48.75 27.00L49.83 27.26L49.83 28Z M60.41 20.38L60.41 19.64L63.75 19.58L63.75 20.32L62.81 20.61L62.81 24.75Q62.81 25.30 62.72 25.80Q62.62 26.31 62.39 26.73Q62.15 27.16 61.77 27.47Q61.40 27.78 60.83 27.96Q60.26 28.13 59.49 28.13L59.49 28.13Q58.53 28.13 57.92 27.89Q57.30 27.65 56.96 27.27Q56.62 26.88 56.48 26.44Q56.33 26.00 56.30 25.59Q56.27 25.18 56.27 24.89L56.27 24.89L56.27 20.61L55.34 20.38L55.34 19.64L58.67 19.58L58.67 20.32L57.74 20.61L57.74 24.89Q57.74 25.20 57.77 25.51Q57.80 25.82 57.89 26.08Q57.98 26.34 58.17 26.55Q58.36 26.76 58.68 26.88Q59.01 26.99 59.51 26.99L59.51 26.99Q60.03 26.99 60.36 26.87Q60.69 26.75 60.89 26.53Q61.10 26.31 61.19 26.02Q61.29 25.73 61.32 25.41Q61.35 25.08 61.35 24.75L61.35 24.75L61.35 20.58L60.41 20.38Z M66.80 21.68L66.80 21.68Q66.80 22.06 67.04 22.31Q67.28 22.55 67.67 22.72Q68.06 22.89 68.53 23.04Q69.00 23.19 69.47 23.37Q69.93 23.55 70.32 23.82Q70.71 24.10 70.95 24.53Q71.19 24.95 71.19 25.59L71.19 25.59Q71.19 26.46 70.74 27.03Q70.29 27.59 69.54 27.87Q68.79 28.14 67.89 28.14L67.89 28.14Q67.26 28.14 66.61 28.02Q65.96 27.89 65.33 27.64L65.33 27.64L65.39 25.46L66.26 25.46L66.45 26.73Q66.78 26.87 67.14 26.94L67.14 26.94Q67.56 27.04 67.96 27.04L67.96 27.04Q68.45 27.04 68.85 26.90Q69.26 26.76 69.50 26.48Q69.74 26.20 69.74 25.78L69.74 25.78Q69.74 25.37 69.50 25.11Q69.27 24.86 68.88 24.68Q68.49 24.51 68.02 24.37Q67.55 24.23 67.08 24.06Q66.62 23.88 66.23 23.61Q65.84 23.34 65.60 22.93Q65.37 22.52 65.37 21.87L65.37 21.87Q65.37 21.05 65.76 20.52Q66.16 19.98 66.84 19.71Q67.53 19.44 68.38 19.44L68.38 19.44Q68.98 19.44 69.63 19.57Q70.29 19.70 70.94 19.96L70.94 19.96L70.82 21.99L69.93 21.99L69.72 20.75Q69.47 20.67 69.20 20.61L69.20 20.61Q68.82 20.54 68.45 20.54L68.45 20.54Q68.02 20.54 67.64 20.65Q67.25 20.76 67.02 21.02Q66.80 21.27 66.80 21.68Z M78.03 26.93L78.22 25.84L79.10 25.84L79.08 28L72.89 28L72.89 27.26L73.83 27.00L73.83 20.61L72.89 20.38L72.89 19.64L75.28 19.58L78.95 19.58L78.95 21.65L78.06 21.65L77.87 20.64L75.30 20.64L75.30 23.19L78.03 23.19L78.03 24.22L75.30 24.22L75.30 26.93L78.03 26.93Z M83.42 19.58L84.57 19.58Q85.42 19.58 86.12 19.83Q86.82 20.08 87.33 20.59Q87.83 21.10 88.11 21.86Q88.38 22.62 88.38 23.64L88.38 23.64Q88.38 25.07 87.87 26.04Q87.36 27.00 86.45 27.50Q85.54 28 84.33 28L84.33 28L80.85 28L80.85 27.26L81.78 27.02L81.78 20.61L80.85 20.38L80.85 19.64L83.42 19.58ZM83.26 26.93L84.40 26.93Q84.84 26.93 85.26 26.79Q85.68 26.66 86.03 26.31Q86.38 25.97 86.59 25.35Q86.80 24.72 86.80 23.74L86.80 23.74Q86.80 22.78 86.60 22.17Q86.40 21.57 86.07 21.24Q85.74 20.91 85.34 20.78Q84.94 20.64 84.52 20.64L84.52 20.64L83.26 20.64L83.26 26.93Z" fill="#262b21"/><path d="M400.98 19.51L400.98 27.34L401.85 27.53L401.85 28L399.24 28L399.24 27.53L400.10 27.34L400.10 20.23L399.24 20.06L399.24 19.59L400.98 19.51Z M407.06 23.73L407.06 27.34L407.93 27.50L407.93 27.99L406.39 28.05L406.27 27.10Q405.82 27.58 405.29 27.82L405.29 27.82Q404.73 28.10 404.20 28.10L404.20 28.10Q403.57 28.10 403.13 27.69Q402.69 27.29 402.69 26.46L402.69 26.46Q402.69 25.81 402.96 25.46Q403.24 25.12 403.72 24.98Q404.20 24.83 404.84 24.83L404.84 24.83L406.18 24.83L406.18 23.89Q406.18 23.28 405.87 23.02Q405.55 22.76 404.99 22.76L404.99 22.76Q404.69 22.76 404.36 22.82L404.36 22.82Q404.07 22.87 403.76 22.97L403.76 22.97L403.67 23.88L403.08 23.88L402.99 22.51Q403.62 22.30 404.17 22.20Q404.72 22.09 405.18 22.09L405.18 22.09Q406.06 22.09 406.56 22.48Q407.06 22.87 407.06 23.73L407.06 23.73ZM403.58 26.38L403.58 26.38Q403.58 26.92 403.84 27.18Q404.09 27.43 404.49 27.43L404.49 27.43Q404.88 27.43 405.35 27.19L405.35 27.19Q405.78 26.98 406.18 26.60L406.18 26.60L406.18 25.40L404.97 25.40Q404.19 25.40 403.88 25.64Q403.58 25.88 403.58 26.38Z M409.67 23.60L409.67 23.60Q409.67 23.95 409.90 24.15Q410.13 24.35 410.50 24.47Q410.86 24.60 411.27 24.72Q411.67 24.84 412.04 25.02Q412.40 25.20 412.63 25.50Q412.86 25.81 412.86 26.32L412.86 26.32Q412.86 26.90 412.54 27.30Q412.22 27.69 411.68 27.90Q411.13 28.10 410.46 28.10L410.46 28.10Q410.06 28.10 409.63 28.03Q409.20 27.97 408.75 27.85L408.75 27.85L408.82 26.37L409.38 26.37L409.48 27.35Q409.70 27.41 409.95 27.44L409.95 27.44Q410.24 27.48 410.50 27.48L410.50 27.48Q410.89 27.48 411.23 27.37Q411.56 27.25 411.77 27.03Q411.98 26.80 411.98 26.46L411.98 26.46Q411.98 26.10 411.76 25.89Q411.53 25.68 411.17 25.55Q410.80 25.41 410.40 25.30Q410.00 25.18 409.64 25.00Q409.27 24.82 409.04 24.52Q408.81 24.23 408.81 23.71L408.81 23.71Q408.81 23.15 409.10 22.79Q409.40 22.43 409.87 22.26Q410.35 22.09 410.90 22.09L410.90 22.09Q411.28 22.09 411.73 22.17Q412.18 22.25 412.65 22.40L412.65 22.40L412.60 23.64L412.04 23.64L411.89 22.85Q411.39 22.72 410.93 22.72L410.93 22.72Q410.39 22.72 410.03 22.95Q409.67 23.17 409.67 23.60Z M415.76 28.10L415.76 28.10Q415.19 28.10 414.86 27.74Q414.53 27.38 414.53 26.66L414.53 26.66L414.53 22.81L413.54 22.81L413.54 22.32L414.53 22.18L414.53 20.88L415.41 20.74L415.41 22.19L417.02 22.19L416.99 22.81L415.41 22.81L415.41 26.54Q415.41 27.00 415.59 27.21Q415.78 27.42 416.11 27.42L416.11 27.42Q416.30 27.42 416.53 27.35Q416.77 27.29 417.03 27.16L417.03 27.16L417.22 27.67Q416.44 28.10 415.76 28.10Z M422.34 28.09L422.34 28.09Q421.74 28.09 421.14 27.93Q420.55 27.78 420.02 27.47L420.02 27.47L420.29 26.81Q420.77 27.09 421.29 27.23Q421.81 27.37 422.32 27.37L422.32 27.37Q422.87 27.37 423.29 27.20Q423.72 27.03 423.96 26.68Q424.20 26.33 424.20 25.80L424.20 25.80Q424.20 25.37 424.01 25.04Q423.82 24.70 423.40 24.50Q422.98 24.30 422.29 24.30L422.29 24.30L421.38 24.30L421.38 23.63L422.30 23.63Q423.17 23.63 423.60 23.27Q424.04 22.91 424.04 22.25L424.04 22.25Q424.04 21.52 423.59 21.21Q423.13 20.89 422.42 20.89L422.42 20.89Q422.05 20.89 421.65 20.97L421.65 20.97Q421.32 21.04 420.99 21.14L420.99 21.14L420.87 22.32L420.32 22.32L420.23 20.65Q420.84 20.45 421.45 20.34Q422.07 20.22 422.62 20.22L422.62 20.22Q423.29 20.22 423.82 20.41Q424.36 20.60 424.66 21.02Q424.96 21.43 424.96 22.12L424.96 22.12Q424.96 22.92 424.50 23.38L424.50 23.38Q424.10 23.78 423.34 23.93L423.34 23.93Q424.18 24.04 424.62 24.47L424.62 24.47Q425.13 24.98 425.13 25.82L425.13 25.82Q425.13 26.39 424.91 26.82Q424.70 27.25 424.31 27.53Q423.93 27.81 423.42 27.95Q422.92 28.09 422.34 28.09Z M427.46 24.02L427.46 24.02Q427.91 23.74 428.39 23.58L428.39 23.58Q428.98 23.39 429.55 23.39L429.55 23.39Q430.19 23.39 430.70 23.64Q431.21 23.89 431.52 24.38Q431.82 24.88 431.82 25.62L431.82 25.62Q431.82 26.38 431.49 26.94Q431.16 27.49 430.57 27.80Q429.98 28.10 429.22 28.10L429.22 28.10Q428.41 28.10 427.80 27.74Q427.19 27.37 426.85 26.61Q426.51 25.84 426.51 24.66L426.51 24.66Q426.51 23.29 426.95 22.30Q427.39 21.31 428.21 20.77Q429.02 20.22 430.12 20.22L430.12 20.22Q430.69 20.22 431.32 20.38L431.32 20.38L431.24 21.05Q430.97 20.99 430.70 20.97Q430.44 20.94 430.21 20.94L430.21 20.94Q429.27 20.94 428.66 21.39Q428.04 21.85 427.74 22.68L427.74 22.68Q427.52 23.27 427.46 24.02ZM427.44 24.70L427.44 24.70Q427.44 26.06 427.90 26.71L427.90 26.71Q428.36 27.38 429.23 27.38L429.23 27.38Q430.00 27.38 430.45 26.92Q430.90 26.46 430.90 25.66L430.90 25.66Q430.90 25.11 430.68 24.75Q430.46 24.39 430.10 24.22Q429.75 24.05 429.28 24.05L429.28 24.05Q428.81 24.05 428.29 24.24L428.29 24.24Q427.84 24.40 427.44 24.70Z M435.00 28.09L435.00 28.09Q433.91 28.09 432.80 27.55L432.80 27.55L433.06 26.89Q433.53 27.12 433.99 27.24Q434.45 27.36 434.88 27.36L434.88 27.36Q435.44 27.36 435.86 27.15Q436.27 26.94 436.50 26.55Q436.73 26.16 436.73 25.64L436.73 25.64Q436.73 25.05 436.43 24.72Q436.13 24.38 435.52 24.24Q434.90 24.09 433.98 24.09L433.98 24.09L433.27 24.09L433.42 20.32L437.35 20.32L437.34 21.04L434.29 21.04L434.19 23.41L434.59 23.41Q435.66 23.41 436.35 23.67Q437.03 23.93 437.36 24.42Q437.69 24.91 437.69 25.62L437.69 25.62Q437.69 26.39 437.34 26.95Q436.99 27.50 436.39 27.80Q435.78 28.09 435.00 28.09Z M443.08 28.10L443.08 28.10Q442.47 28.10 441.98 27.76Q441.48 27.43 441.20 26.77Q440.91 26.12 440.91 25.18L440.91 25.18Q440.91 23.66 441.69 22.87Q442.47 22.09 443.84 22.09L443.84 22.09Q444.12 22.09 444.44 22.14L444.44 22.14Q444.66 22.17 444.90 22.23L444.90 22.23L444.90 20.26L443.99 20.06L443.99 19.59L445.78 19.51L445.78 27.33L446.64 27.50L446.64 27.99L445.10 28.05L444.99 27.24Q444.54 27.65 444.09 27.86L444.09 27.86Q443.58 28.10 443.08 28.10ZM443.39 27.43L443.39 27.43Q443.77 27.43 444.19 27.22L444.19 27.22Q444.54 27.04 444.90 26.71L444.90 26.71L444.90 22.93Q444.30 22.74 443.80 22.74L443.80 22.74Q442.84 22.74 442.33 23.37Q441.82 24.00 441.82 25.11L441.82 25.11Q441.82 25.83 442.03 26.36Q442.23 26.88 442.59 27.15Q442.95 27.43 443.39 27.43Z M451.85 23.73L451.85 27.34L452.71 27.50L452.71 27.99L451.17 28.05L451.05 27.10Q450.60 27.58 450.07 27.82L450.07 27.82Q449.51 28.10 448.99 28.10L448.99 28.10Q448.35 28.10 447.91 27.69Q447.47 27.29 447.47 26.46L447.47 26.46Q447.47 25.81 447.74 25.46Q448.02 25.12 448.50 24.98Q448.99 24.83 449.62 24.83L449.62 24.83L450.97 24.83L450.97 23.89Q450.97 23.28 450.65 23.02Q450.33 22.76 449.77 22.76L449.77 22.76Q449.47 22.76 449.14 22.82L449.14 22.82Q448.85 22.87 448.55 22.97L448.55 22.97L448.45 23.88L447.86 23.88L447.78 22.51Q448.40 22.30 448.95 22.20Q449.50 22.09 449.96 22.09L449.96 22.09Q450.84 22.09 451.34 22.48Q451.85 22.87 451.85 23.73L451.85 23.73ZM448.36 26.38L448.36 26.38Q448.36 26.92 448.62 27.18Q448.88 27.43 449.27 27.43L449.27 27.43Q449.66 27.43 450.13 27.19L450.13 27.19Q450.56 26.98 450.97 26.60L450.97 26.60L450.97 25.40L449.75 25.40Q448.97 25.40 448.67 25.64Q448.36 25.88 448.36 26.38Z M453.09 30.57L453.09 30.57L453.17 29.93Q453.30 29.95 453.41 29.96Q453.53 29.97 453.63 29.97L453.63 29.97Q454.17 29.97 454.50 29.72Q454.84 29.47 455.07 28.98L455.07 28.98Q455.27 28.56 455.46 27.97L455.46 27.97L453.48 22.81L452.86 22.70L452.86 22.23L455.27 22.15L455.27 22.63L454.38 22.79L455.87 27.07L457.32 22.81L456.45 22.70L456.45 22.23L458.79 22.15L458.79 22.63L458.15 22.77L456.23 28.02Q456.04 28.57 455.82 29.05Q455.61 29.52 455.33 29.88Q455.06 30.23 454.66 30.43Q454.26 30.63 453.70 30.63L453.70 30.63Q453.45 30.63 453.09 30.57Z M460.27 23.60L460.27 23.60Q460.27 23.95 460.50 24.15Q460.73 24.35 461.10 24.47Q461.46 24.60 461.87 24.72Q462.27 24.84 462.64 25.02Q463.00 25.20 463.23 25.50Q463.46 25.81 463.46 26.32L463.46 26.32Q463.46 26.90 463.14 27.30Q462.82 27.69 462.28 27.90Q461.73 28.10 461.06 28.10L461.06 28.10Q460.66 28.10 460.23 28.03Q459.80 27.97 459.35 27.85L459.35 27.85L459.42 26.37L459.99 26.37L460.08 27.35Q460.30 27.41 460.55 27.44L460.55 27.44Q460.84 27.48 461.10 27.48L461.10 27.48Q461.49 27.48 461.83 27.37Q462.16 27.25 462.37 27.03Q462.58 26.80 462.58 26.46L462.58 26.46Q462.58 26.10 462.36 25.89Q462.13 25.68 461.77 25.55Q461.40 25.41 461.00 25.30Q460.60 25.18 460.24 25.00Q459.88 24.82 459.64 24.52Q459.41 24.23 459.41 23.71L459.41 23.71Q459.41 23.15 459.70 22.79Q460.00 22.43 460.47 22.26Q460.95 22.09 461.50 22.09L461.50 22.09Q461.88 22.09 462.33 22.17Q462.78 22.25 463.25 22.40L463.25 22.40L463.20 23.64L462.64 23.64L462.49 22.85Q461.99 22.72 461.53 22.72L461.53 22.72Q460.99 22.72 460.63 22.95Q460.27 23.17 460.27 23.60Z" fill="#84887c"/><rect x="16" y="40" width="448" height="12" rx="6" fill="#d6d9ce"/><rect class="seg" x="16" y="40" width="444" height="12" fill="#f7ecbe"/><rect x="16" y="40" width="448" height="12" rx="6" fill="none" stroke="#fdfcf6" stroke-width="0"/><rect x="16" y="65" width="10" height="10" rx="3" fill="#f7ecbe" stroke="#553d1a"/><path d="M35.50 70.80L35.50 70.80L34.60 70.80L34.60 73.27L35.92 73.48L35.92 74L32.59 74L32.59 73.48L33.62 73.27L33.62 66.38L32.59 66.20L32.59 65.68L34.63 65.62L35.98 65.62Q36.91 65.62 37.51 65.94Q38.11 66.25 38.41 66.80Q38.71 67.35 38.71 68.08L38.71 68.08Q38.71 68.89 38.35 69.50Q37.99 70.11 37.27 70.45Q36.56 70.80 35.50 70.80ZM35.84 66.36L35.84 66.36L34.60 66.36L34.60 70.06L35.50 70.06Q36.56 70.06 37.13 69.54Q37.70 69.01 37.70 68.11L37.70 68.11Q37.70 67.29 37.23 66.82Q36.75 66.36 35.84 66.36Z M39.33 76.81L39.33 76.81L39.42 76.10Q39.56 76.12 39.69 76.14Q39.81 76.15 39.92 76.15L39.92 76.15Q40.51 76.15 40.87 75.88Q41.24 75.61 41.49 75.07L41.49 75.07Q41.71 74.61 41.92 73.96L41.92 73.96L39.76 68.34L39.08 68.22L39.08 67.70L41.71 67.62L41.71 68.14L40.74 68.31L42.37 72.98L43.95 68.34L43.00 68.22L43.00 67.70L45.55 67.62L45.55 68.14L44.85 68.30L42.76 74.02Q42.55 74.62 42.31 75.14Q42.08 75.66 41.78 76.05Q41.48 76.44 41.05 76.65Q40.62 76.87 40.00 76.87L40.00 76.87Q39.73 76.87 39.33 76.81Z M48.08 74.11L48.08 74.11Q47.46 74.11 47.10 73.72Q46.74 73.33 46.74 72.54L46.74 72.54L46.74 68.34L45.66 68.34L45.66 67.81L46.74 67.65L46.74 66.24L47.70 66.08L47.70 67.66L49.45 67.66L49.41 68.34L47.70 68.34L47.70 72.40Q47.70 72.91 47.89 73.14Q48.09 73.36 48.45 73.36L48.45 73.36Q48.67 73.36 48.92 73.29Q49.17 73.22 49.46 73.09L49.46 73.09L49.66 73.64Q48.81 74.11 48.08 74.11Z M52.95 74L50.16 74L50.16 73.48L51.09 73.28L51.09 65.54L50.16 65.34L50.16 64.82L52.05 64.74L52.05 68.54Q52.54 68.08 53.10 67.84L53.10 67.84Q53.74 67.56 54.33 67.56L54.33 67.56Q54.86 67.56 55.28 67.77Q55.70 67.99 55.93 68.43Q56.17 68.86 56.16 69.54L56.16 69.54L56.16 73.28L57.10 73.48L57.10 74L54.30 74L54.30 73.48L55.20 73.29L55.20 69.75Q55.22 69.01 54.87 68.66Q54.52 68.31 53.96 68.31L53.96 68.31Q53.52 68.31 53 68.55L53 68.55Q52.52 68.77 52.05 69.22L52.05 69.22L52.05 73.29L52.95 73.48L52.95 74Z M60.84 67.56L60.84 67.56Q62.16 67.56 62.91 68.38Q63.66 69.21 63.66 70.72L63.66 70.72Q63.66 71.74 63.29 72.51Q62.92 73.27 62.25 73.69Q61.58 74.11 60.63 74.11L60.63 74.11Q59.34 74.11 58.60 73.30Q57.87 72.49 57.87 70.96L57.87 70.96Q57.87 69.91 58.23 69.15Q58.58 68.38 59.25 67.97Q59.91 67.56 60.84 67.56ZM60.79 68.26L60.79 68.26Q59.86 68.26 59.37 68.96Q58.88 69.66 58.88 70.92L58.88 70.92Q58.88 72.15 59.35 72.78Q59.82 73.40 60.69 73.40L60.69 73.40Q61.33 73.40 61.77 73.08Q62.20 72.76 62.43 72.18Q62.65 71.59 62.65 70.77L62.65 70.77Q62.65 69.55 62.16 68.91Q61.68 68.26 60.79 68.26Z M67.46 74L64.66 74L64.66 73.48L65.60 73.28L65.60 68.41L64.66 68.22L64.66 67.70L66.34 67.62L66.45 68.64Q67.00 68.11 67.60 67.84L67.60 67.84Q68.25 67.56 68.84 67.56L68.84 67.56Q69.63 67.56 70.15 68.04Q70.68 68.53 70.66 69.55L70.66 69.55L70.66 73.28L71.60 73.48L71.60 74L68.80 74L68.80 73.48L69.70 73.29L69.70 69.75Q69.70 69.01 69.37 68.66Q69.03 68.31 68.47 68.31L68.47 68.31Q68.02 68.31 67.51 68.55L67.51 68.55Q67.03 68.77 66.56 69.21L66.56 69.21L66.56 73.29L67.46 73.48L67.46 74Z" fill="#51584b"/><path d="M131.06 70.40L131.06 70.40Q130.42 70.63 129.77 70.63L129.77 70.63Q129.08 70.63 128.52 70.36Q127.96 70.09 127.64 69.56Q127.31 69.03 127.30 68.24L127.30 68.24Q127.29 67.39 127.65 66.78Q128.02 66.18 128.67 65.85Q129.32 65.52 130.14 65.52L130.14 65.52Q131.02 65.52 131.69 65.91Q132.36 66.31 132.73 67.14Q133.10 67.96 133.10 69.26L133.10 69.26Q133.10 70.72 132.62 71.81Q132.15 72.90 131.27 73.50Q130.38 74.10 129.16 74.10L129.16 74.10Q128.54 74.10 127.85 73.93L127.85 73.93L127.94 73.21Q128.25 73.27 128.53 73.30Q128.81 73.33 129.05 73.33L129.05 73.33Q130.08 73.33 130.76 72.83Q131.43 72.33 131.76 71.42L131.76 71.42Q132.00 70.76 132.06 69.91L132.06 69.91Q131.58 70.22 131.06 70.40ZM132.09 69.18L132.09 69.18Q132.08 67.72 131.60 67.02L131.60 67.02Q131.09 66.30 130.13 66.30L130.13 66.30Q129.30 66.30 128.81 66.79Q128.31 67.29 128.31 68.17L128.31 68.17Q128.31 68.78 128.54 69.16Q128.78 69.55 129.17 69.73Q129.56 69.91 130.04 69.91L130.04 69.91Q130.59 69.91 131.15 69.69L131.15 69.69Q131.63 69.51 132.09 69.18Z M138.09 70.40L138.09 70.40Q137.45 70.63 136.80 70.63L136.80 70.63Q136.11 70.63 135.55 70.36Q134.99 70.09 134.67 69.56Q134.34 69.03 134.33 68.24L134.33 68.24Q134.32 67.39 134.69 66.78Q135.05 66.18 135.70 65.85Q136.35 65.52 137.18 65.52L137.18 65.52Q138.05 65.52 138.72 65.91Q139.40 66.31 139.76 67.14Q140.13 67.96 140.13 69.26L140.13 69.26Q140.13 70.72 139.65 71.81Q139.18 72.90 138.30 73.50Q137.42 74.10 136.19 74.10L136.19 74.10Q135.57 74.10 134.88 73.93L134.88 73.93L134.97 73.21Q135.28 73.27 135.56 73.30Q135.84 73.33 136.08 73.33L136.08 73.33Q137.12 73.33 137.79 72.83Q138.46 72.33 138.80 71.42L138.80 71.42Q139.04 70.76 139.10 69.91L139.10 69.91Q138.62 70.22 138.09 70.40ZM139.12 69.18L139.12 69.18Q139.11 67.72 138.63 67.02L138.63 67.02Q138.12 66.30 137.16 66.30L137.16 66.30Q136.34 66.30 135.84 66.79Q135.34 67.29 135.34 68.17L135.34 68.17Q135.34 68.78 135.57 69.16Q135.81 69.55 136.20 69.73Q136.59 69.91 137.07 69.91L137.07 69.91Q137.62 69.91 138.18 69.69L138.18 69.69Q138.66 69.51 139.12 69.18Z M143.52 74.11L142.71 74.11L148.32 65.52L149.15 65.52L143.52 74.11ZM143.51 69.80L143.51 69.80Q142.54 69.80 142.05 69.22Q141.57 68.65 141.57 67.69L141.57 67.69Q141.57 66.72 142.07 66.12Q142.58 65.52 143.61 65.52L143.61 65.52Q144.60 65.52 145.06 66.07Q145.52 66.63 145.52 67.54L145.52 67.54Q145.52 68.56 145.01 69.18Q144.51 69.80 143.51 69.80ZM143.54 69.22L143.54 69.22Q144.21 69.22 144.48 68.79Q144.76 68.35 144.77 67.62L144.77 67.62Q144.77 66.86 144.50 66.48Q144.23 66.09 143.60 66.09L143.60 66.09Q142.90 66.09 142.61 66.51Q142.31 66.93 142.31 67.69L142.31 67.69Q142.31 68.41 142.60 68.82Q142.89 69.22 143.54 69.22ZM148.25 74.11L148.25 74.11Q147.28 74.11 146.79 73.53Q146.31 72.96 146.31 72.01L146.31 72.01Q146.31 71.04 146.81 70.44Q147.32 69.84 148.35 69.84L148.35 69.84Q149.36 69.84 149.81 70.39Q150.26 70.94 150.26 71.86L150.26 71.86Q150.26 72.87 149.76 73.49Q149.26 74.11 148.25 74.11ZM148.28 73.53L148.28 73.53Q148.95 73.53 149.22 73.09Q149.50 72.66 149.51 71.94L149.51 71.94Q149.52 71.18 149.25 70.79Q148.98 70.40 148.34 70.40L148.34 70.40Q147.65 70.40 147.36 70.83Q147.06 71.25 147.06 72.00L147.06 72.00Q147.06 72.72 147.35 73.12Q147.64 73.53 148.28 73.53Z" fill="#84887c"/><rect x="165" y="65" width="10" height="10" rx="3" fill="#c9e3c9" stroke="#234725"/><path d="M182.91 67.66L182.91 67.66Q182.91 68.12 183.15 68.41Q183.39 68.70 183.79 68.88Q184.19 69.07 184.67 69.21Q185.15 69.36 185.63 69.53Q186.11 69.70 186.51 69.96Q186.90 70.22 187.15 70.63Q187.40 71.05 187.40 71.67L187.40 71.67Q187.40 72.51 186.97 73.05Q186.54 73.59 185.84 73.85Q185.13 74.11 184.29 74.11L184.29 74.11Q183.69 74.11 183.06 73.98Q182.44 73.86 181.84 73.60L181.84 73.60L181.91 71.64L182.50 71.64L182.68 73.02Q183.05 73.17 183.46 73.26L183.46 73.26Q183.92 73.35 184.35 73.35L184.35 73.35Q184.91 73.35 185.38 73.18Q185.85 73.00 186.14 72.66Q186.42 72.32 186.42 71.80L186.42 71.80Q186.42 71.32 186.18 71.03Q185.93 70.74 185.54 70.54Q185.14 70.35 184.66 70.21Q184.18 70.06 183.70 69.90Q183.22 69.74 182.82 69.49Q182.43 69.24 182.18 68.83Q181.94 68.43 181.94 67.81L181.94 67.81Q181.94 67.04 182.31 66.53Q182.69 66.02 183.35 65.77Q184 65.52 184.80 65.52L184.80 65.52Q185.37 65.52 185.98 65.64Q186.59 65.76 187.18 66.01L187.18 66.01L187.08 67.89L186.48 67.89L186.32 66.54Q186.02 66.43 185.67 66.36L185.67 66.36Q185.25 66.27 184.83 66.27L184.83 66.27Q184.34 66.27 183.89 66.41Q183.45 66.55 183.18 66.85Q182.91 67.16 182.91 67.66Z M191.31 74L188.51 74L188.51 73.48L189.45 73.28L189.45 65.54L188.51 65.34L188.51 64.82L190.41 64.74L190.41 68.54Q190.90 68.08 191.45 67.84L191.45 67.84Q192.10 67.56 192.69 67.56L192.69 67.56Q193.22 67.56 193.64 67.77Q194.06 67.99 194.29 68.43Q194.52 68.86 194.51 69.54L194.51 69.54L194.51 73.28L195.46 73.48L195.46 74L192.65 74L192.65 73.48L193.55 73.29L193.55 69.75Q193.58 69.01 193.23 68.66Q192.88 68.31 192.32 68.31L192.32 68.31Q191.87 68.31 191.36 68.55L191.36 68.55Q190.88 68.77 190.41 69.22L190.41 69.22L190.41 73.29L191.31 73.48L191.31 74Z M198.98 74.11L198.98 74.11Q198.17 74.11 197.55 73.74Q196.94 73.38 196.59 72.67Q196.24 71.96 196.24 70.94L196.24 70.94Q196.24 69.90 196.60 69.14Q196.96 68.38 197.62 67.97Q198.28 67.56 199.17 67.56L199.17 67.56Q200.01 67.56 200.55 67.91Q201.10 68.26 201.37 68.89Q201.64 69.51 201.64 70.32L201.64 70.32Q201.64 70.45 201.63 70.58Q201.62 70.71 201.59 70.90L201.59 70.90L197.24 70.90Q197.25 71.64 197.46 72.16L197.46 72.16Q197.69 72.74 198.13 73.05Q198.57 73.36 199.20 73.36L199.20 73.36Q199.65 73.36 200.18 73.19Q200.70 73.02 201.27 72.66L201.27 72.66L201.62 73.20Q200.94 73.65 200.27 73.88Q199.60 74.11 198.98 74.11ZM197.27 70.22L197.27 70.22L200.64 70.22Q200.64 69.72 200.51 69.30L200.51 69.30Q200.37 68.84 200.02 68.56Q199.67 68.29 199.10 68.29L199.10 68.29Q198.48 68.29 198.06 68.61Q197.64 68.94 197.44 69.50L197.44 69.50Q197.32 69.82 197.27 70.22Z M204.44 64.74L204.44 73.28L205.38 73.48L205.38 74L202.54 74L202.54 73.48L203.48 73.28L203.48 65.53L202.54 65.34L202.54 64.82L204.44 64.74Z M207.89 64.74L207.89 73.28L208.84 73.48L208.84 74L206.00 74L206.00 73.48L206.93 73.28L206.93 65.53L206.00 65.34L206.00 64.82L207.89 64.74Z" fill="#51584b"/><path d="M285.95 74.11L285.95 74.11Q284.93 74.11 284.26 73.64Q283.60 73.17 283.28 72.24Q282.96 71.30 282.96 69.88L282.96 69.88Q282.96 68.42 283.30 67.45Q283.63 66.49 284.34 66.00Q285.05 65.52 286.12 65.52L286.12 65.52Q287.16 65.52 287.80 65.96Q288.44 66.40 288.74 67.32Q289.03 68.23 289.03 69.63L289.03 69.63Q289.03 71.12 288.70 72.12Q288.36 73.11 287.67 73.61Q286.98 74.11 285.95 74.11ZM285.98 73.34L285.98 73.34Q286.68 73.34 287.12 72.94Q287.57 72.55 287.78 71.75Q288 70.95 288.01 69.73L288.01 69.73Q288.02 68.46 287.81 67.71Q287.59 66.96 287.16 66.62Q286.73 66.28 286.08 66.28L286.08 66.28Q285.36 66.28 284.89 66.67Q284.42 67.06 284.20 67.85Q283.98 68.64 283.98 69.84L283.98 69.84Q283.98 71.04 284.20 71.81Q284.41 72.58 284.86 72.96Q285.30 73.34 285.98 73.34Z M292.52 74.11L291.71 74.11L297.32 65.52L298.15 65.52L292.52 74.11ZM292.51 69.80L292.51 69.80Q291.54 69.80 291.05 69.22Q290.57 68.65 290.57 67.69L290.57 67.69Q290.57 66.72 291.07 66.12Q291.58 65.52 292.61 65.52L292.61 65.52Q293.60 65.52 294.06 66.07Q294.52 66.63 294.52 67.54L294.52 67.54Q294.52 68.56 294.01 69.18Q293.51 69.80 292.51 69.80ZM292.54 69.22L292.54 69.22Q293.21 69.22 293.48 68.79Q293.76 68.35 293.77 67.62L293.77 67.62Q293.77 66.86 293.50 66.48Q293.23 66.09 292.60 66.09L292.60 66.09Q291.90 66.09 291.61 66.51Q291.31 66.93 291.31 67.69L291.31 67.69Q291.31 68.41 291.60 68.82Q291.89 69.22 292.54 69.22ZM297.25 74.11L297.25 74.11Q296.28 74.11 295.79 73.53Q295.31 72.96 295.31 72.01L295.31 72.01Q295.31 71.04 295.81 70.44Q296.32 69.84 297.35 69.84L297.35 69.84Q298.36 69.84 298.81 70.39Q299.26 70.94 299.26 71.86L299.26 71.86Q299.26 72.87 298.76 73.49Q298.26 74.11 297.25 74.11ZM297.28 73.53L297.28 73.53Q297.95 73.53 298.22 73.09Q298.50 72.66 298.51 71.94L298.51 71.94Q298.52 71.18 298.25 70.79Q297.98 70.40 297.34 70.40L297.34 70.40Q296.65 70.40 296.36 70.83Q296.06 71.25 296.06 72.00L296.06 72.00Q296.06 72.72 296.35 73.12Q296.64 73.53 297.28 73.53Z" fill="#84887c"/></svg>